<?xml version="1.0" standalone="no"?>
<!DOCTYPE svg PUBLIC "-//W3C//DTD SVG 20010904//EN"
 "http://www.w3.org/TR/2001/REC-SVG-20010904/DTD/svg10.dtd">
<svg version="1.0" xmlns="http://www.w3.org/2000/svg"
 width="1778.000000pt" height="1778.000000pt" viewBox="0 0 1778.000000 1778.000000"
 preserveAspectRatio="xMidYMid meet">
<metadata>
Created by potrace 1.14, written by Peter Selinger 2001-2017
</metadata>
<g transform="translate(0.000000,1778.000000) scale(0.100000,-0.100000)"
fill="#000000" stroke="none">
<path d="M0 8890 l0 -8890 1919 0 1920 0 4 653 c3 556 6 662 20 718 26 108 95
307 118 342 32 48 107 107 135 107 13 0 24 -1 24 -2 3 -17 32 -343 40 -438 5
-69 15 -174 20 -235 38 -395 41 -662 14 -1063 l-6 -82 1238 0 1237 0 34 26
c43 33 42 56 -4 86 -77 50 -265 66 -463 40 -218 -29 -248 -35 -305 -57 -124
-48 -134 -50 -156 -37 -14 9 -25 9 -39 2 -25 -13 -49 -3 -56 25 -7 28 -57 39
-94 20 -20 -11 -26 -10 -35 2 -7 9 -31 14 -73 15 -60 1 -62 2 -46 19 18 20 49
25 58 10 8 -13 104 8 165 35 29 14 85 32 125 40 39 9 98 22 131 29 97 21 181
45 338 97 129 42 159 48 232 48 79 0 180 -17 242 -41 79 -30 143 -13 162 42 9
25 8 38 -5 65 -9 18 -21 37 -27 42 -24 18 -148 62 -204 72 -123 22 -449 53
-464 44 -3 -2 -161 -10 -350 -18 -189 -9 -391 -21 -449 -27 -129 -14 -165 -5
-156 39 5 22 -1 35 -35 71 -23 25 -38 49 -35 58 3 8 -15 41 -43 76 -26 34 -54
73 -61 87 -15 29 -72 85 -82 82 -5 -1 -8 9 -8 23 0 14 -4 25 -10 25 -14 0 -13
97 2 106 6 4 23 10 38 13 17 4 49 33 88 80 97 115 230 256 506 533 141 141
256 260 256 265 0 5 14 19 30 32 l31 22 -7 -25 c-5 -22 -3 -26 16 -26 16 0 20
-4 16 -15 -12 -32 -181 -266 -198 -273 -7 -3 -121 -143 -192 -236 -22 -28 -46
-57 -53 -65 -8 -7 -22 -26 -31 -40 -9 -14 -65 -90 -123 -168 -146 -194 -151
-203 -152 -271 -2 -72 37 -148 81 -158 15 -4 36 -12 47 -18 69 -41 192 -56
449 -55 201 0 219 2 237 20 11 11 19 33 19 50 0 18 5 49 11 69 15 48 5 98 -26
144 -29 43 -33 125 -10 191 8 22 15 46 15 53 0 7 9 34 20 60 42 96 186 370
206 393 8 8 14 18 14 22 0 3 19 33 43 67 23 34 51 76 61 94 56 90 218 206 377
270 74 29 129 34 129 11 0 -17 -30 -35 -60 -35 -24 0 -115 -61 -176 -117 -101
-95 -201 -267 -250 -434 -16 -54 -28 -66 -50 -48 -22 18 -49 -12 -73 -80 -11
-31 -39 -108 -61 -171 -63 -173 -62 -168 -41 -189 13 -13 46 -21 117 -29 144
-16 450 -43 593 -52 68 -5 154 -16 191 -25 59 -14 75 -24 127 -75 105 -101
138 -106 180 -28 15 29 36 54 46 56 15 3 17 -5 17 -62 0 -73 -5 -69 81 -66 26
1 63 -6 84 -14 20 -9 41 -14 45 -11 5 3 11 23 15 45 4 22 11 42 16 45 4 3 28
-28 51 -70 l43 -76 45 4 c25 2 83 21 130 42 79 36 91 39 175 38 78 0 106 -5
212 -41 67 -23 155 -49 195 -58 40 -9 120 -30 177 -45 121 -34 147 -35 159
-11 16 31 2 187 -29 313 -17 68 -39 160 -49 204 -32 135 -69 236 -117 320 -25
44 -54 110 -64 147 -10 38 -49 126 -85 198 -36 71 -64 137 -60 145 29 78 196
-168 282 -418 19 -53 34 -103 34 -109 0 -6 9 -31 21 -55 35 -71 179 -512 199
-608 22 -102 26 -272 9 -340 -13 -50 -28 -65 -83 -84 -43 -15 -56 -6 -56 36 0
14 -11 30 -27 40 -16 10 -30 20 -33 23 -24 25 -127 62 -350 125 -115 33 -263
44 -312 24 -47 -19 -118 -80 -118 -101 0 -25 64 -24 132 2 91 35 183 23 303
-37 227 -115 503 -258 515 -268 8 -7 58 -34 110 -59 52 -26 104 -52 115 -59
11 -7 60 -36 108 -65 l88 -52 133 0 134 0 21 52 c34 87 43 151 38 271 -7 147
-12 174 -54 287 -33 90 -64 153 -250 520 -43 85 -98 196 -121 245 -23 50 -46
97 -51 105 -5 8 -31 52 -58 98 -86 148 -142 229 -216 312 -74 81 -126 182
-108 204 7 8 19 12 26 9 18 -6 247 -278 265 -313 7 -14 23 -36 35 -50 58 -64
190 -307 290 -528 57 -129 109 -228 186 -357 72 -121 125 -231 169 -349 29
-80 32 -98 32 -204 0 -87 -5 -139 -21 -201 -11 -46 -21 -88 -21 -92 0 -5 1756
-9 3980 -9 l3980 0 0 8890 0 8890 -2406 0 c-2288 0 -2406 -1 -2398 -17 16 -38
10 -75 -18 -96 -44 -33 -61 -18 -56 53 l4 60 -42 0 c-37 0 -43 -3 -46 -22 -2
-13 -10 -23 -18 -23 -8 0 -16 10 -18 23 -3 22 -4 22 -193 22 -185 0 -215 -5
-169 -30 14 -7 19 -17 15 -28 -7 -24 42 -52 89 -52 20 0 36 -2 36 -5 0 -9 -40
-45 -49 -45 -5 0 -24 -12 -41 -26 -28 -24 -30 -30 -24 -70 5 -36 3 -44 -9 -44
-33 0 -67 20 -67 39 0 28 -25 33 -51 10 -37 -32 -54 -21 -57 37 -2 43 -7 53
-27 62 -30 14 -33 32 -6 32 30 0 38 -16 40 -80 1 -36 4 -40 26 -40 22 0 25 4
25 38 0 27 -6 41 -20 50 -15 9 -18 17 -12 30 5 9 7 23 5 30 -3 6 2 12 11 12 9
0 13 -6 10 -14 -3 -8 -1 -17 5 -21 7 -3 8 0 5 9 -3 9 -1 16 5 16 6 0 11 19 11
45 l0 45 -56 0 c-46 0 -60 -4 -75 -22 -23 -26 -24 -34 -4 -42 20 -7 19 -36 -1
-36 -10 0 -14 -6 -11 -14 3 -7 0 -22 -8 -33 -13 -18 -10 -73 5 -73 4 0 12 10
17 23 10 20 11 19 22 -23 6 -25 16 -53 21 -62 6 -10 10 -36 10 -58 0 -30 -4
-40 -16 -40 -26 0 -45 -28 -53 -81 -5 -27 -18 -64 -31 -81 -27 -36 -17 -48 43
-48 25 0 37 -5 37 -14 0 -8 7 -13 16 -12 9 0 19 -5 21 -11 3 -10 -10 -12 -54
-9 -32 2 -47 2 -34 -1 48 -9 71 -33 70 -72 -1 -20 -5 -47 -9 -61 l-8 -25 -2
25 c-2 24 -3 24 -9 -4 -5 -22 -15 -32 -44 -42 -33 -11 -39 -11 -44 1 -3 9 -1
21 5 28 13 16 -3 57 -22 57 -18 0 -46 49 -46 80 0 17 -6 20 -37 20 l-38 0 3
-61 c4 -62 -4 -78 -35 -79 -17 0 -16 41 1 65 7 11 16 41 20 67 4 25 14 52 21
58 19 16 19 37 1 47 -16 10 -28 64 -25 113 1 19 2 74 2 123 0 70 -4 91 -19
108 -16 17 -19 18 -27 4 -5 -10 -4 -21 3 -31 9 -10 9 -14 1 -14 -6 0 -11 -9
-11 -20 0 -15 -7 -20 -28 -20 -18 0 -30 -7 -37 -22 -12 -26 -35 -36 -35 -14 0
9 -5 16 -10 16 -6 0 -10 -15 -10 -32 0 -18 0 -40 -1 -48 0 -8 3 -38 6 -66 5
-31 3 -59 -4 -71 -9 -17 -7 -22 8 -26 14 -3 17 0 14 14 -5 16 -1 18 24 13 21
-4 35 -1 46 11 16 15 17 15 17 -4 0 -11 -4 -22 -9 -25 -5 -3 -7 -15 -4 -26 4
-16 2 -19 -13 -13 -14 5 -16 3 -10 -13 16 -38 12 -49 -20 -52 -51 -5 -67 -67
-25 -98 13 -10 14 -15 2 -38 -8 -14 -15 -52 -16 -83 -4 -132 -2 -125 -32 -121
-20 2 -29 9 -31 26 l-3 22 -30 -20 c-32 -23 -49 -19 -49 11 0 13 7 19 24 19
32 0 42 39 21 80 -18 34 -20 86 -4 96 8 4 7 9 -2 15 -22 14 -29 10 -29 -15 0
-35 -18 -42 -31 -12 -9 20 -9 29 1 41 7 8 17 12 23 8 5 -3 16 2 22 11 11 14
13 15 19 1 7 -19 26 -20 26 0 0 9 -12 21 -26 27 -22 10 -28 10 -39 -5 -16 -23
-48 -22 -70 3 -15 17 -16 25 -5 69 6 28 8 60 4 73 -4 13 -7 26 -6 29 0 4 3 19
6 35 6 34 30 54 64 54 21 0 24 4 19 28 -11 53 13 102 64 134 50 30 53 35 65
108 9 53 7 77 -8 108 -11 21 -16 22 -159 22 l-148 0 -10 -32 -9 -33 -12 32
-12 33 -610 0 c-590 0 -610 -1 -594 -18 9 -10 13 -22 10 -25 -4 -4 -8 -28 -10
-54 -1 -27 -5 -59 -8 -73 -3 -13 -7 -40 -8 -60 -1 -19 -7 -38 -12 -42 -20 -14
10 -43 49 -49 65 -11 74 -4 73 55 -1 67 11 133 28 147 11 9 14 7 15 -7 0 -11
1 -39 3 -64 1 -25 -4 -55 -12 -68 -10 -18 -11 -34 -3 -73 15 -70 14 -154 -3
-168 -9 -8 -12 -29 -9 -74 3 -42 0 -71 -10 -90 l-15 -28 -6 26 c-4 14 -4 30
-1 34 2 5 7 35 9 67 3 47 0 66 -16 92 -23 37 -25 38 -73 15 -24 -11 -35 -23
-35 -38 0 -11 -5 -26 -12 -33 -6 -6 -8 -15 -4 -19 4 -4 11 -1 16 7 8 13 10 13
10 1 0 -8 -9 -25 -21 -37 -19 -21 -20 -24 -5 -41 9 -10 28 -32 41 -49 l24 -31
-25 -12 c-14 -6 -54 -11 -90 -11 -36 0 -81 -7 -102 -15 -72 -31 -105 7 -65 75
15 27 15 30 -4 63 -20 33 -20 35 -3 47 10 7 21 12 25 11 6 -2 35 44 35 55 0 2
-7 4 -15 4 -27 0 -58 40 -52 69 8 40 -3 81 -22 81 -13 0 -13 2 -2 9 10 6 10
10 1 16 -17 10 -23 0 -14 -27 4 -13 6 -27 4 -33 -1 -5 -4 -44 -6 -85 -2 -41
-6 -130 -9 -196 -7 -116 -8 -122 -31 -133 -67 -30 -87 -7 -85 99 1 44 -2 92
-5 106 -7 26 -8 26 -20 9 -8 -11 -14 -36 -14 -56 0 -21 -7 -44 -15 -53 -8 -8
-15 -17 -15 -20 0 -3 -21 -28 -46 -56 -31 -33 -55 -50 -70 -50 -23 0 -24 4
-26 73 0 39 0 79 0 87 1 8 4 78 7 155 3 77 10 176 14 219 5 44 7 85 4 93 -3 8
4 25 17 38 12 12 26 40 30 61 7 32 6 42 -10 56 -18 17 -51 18 -449 18 l-430 0
31 -62 c16 -35 39 -70 50 -78 30 -24 10 -60 -89 -159 -47 -47 -96 -102 -108
-121 -31 -46 -81 -100 -95 -100 -21 0 -20 27 5 88 14 34 25 75 25 91 0 16 11
61 25 99 14 38 25 78 25 89 0 11 9 49 20 83 11 34 20 64 20 66 0 2 -265 4
-590 4 -471 0 -590 -3 -590 -13 0 -7 14 -30 31 -51 44 -52 56 -121 64 -366 3
-113 10 -248 15 -301 14 -142 -4 -189 -70 -189 -42 0 -54 10 -68 60 l-10 35
-13 -32 c-9 -23 -18 -31 -29 -28 -9 3 -31 -2 -48 -11 -24 -11 -46 -14 -86 -9
-52 7 -54 8 -61 41 -11 63 17 356 38 382 5 6 13 27 17 45 6 25 8 27 9 9 1 -15
9 -26 21 -29 19 -5 35 -52 29 -84 -2 -8 0 -35 5 -61 7 -44 10 -48 44 -58 20
-5 41 -10 46 -10 5 0 18 -7 28 -16 25 -23 26 -17 33 176 11 261 8 326 -14 368
-6 11 -11 33 -11 48 0 15 -5 43 -12 61 l-12 33 -343 0 -344 0 15 -28 c10 -19
28 -32 55 -41 39 -11 49 -27 42 -66 -5 -24 -11 -145 -10 -185 4 -103 4 -113
-9 -117 -20 -7 -44 65 -45 139 -2 54 -5 68 -17 67 -33 -3 -39 2 -49 38 -6 20
-25 72 -43 115 l-33 78 -252 0 c-139 0 -253 -3 -253 -7 1 -22 20 -35 42 -30
32 8 53 -6 44 -29 -11 -28 -17 -263 -7 -282 4 -9 5 -66 2 -127 l-6 -110 -46 0
c-29 0 -52 -7 -62 -17 -24 -24 -116 -53 -129 -40 -11 11 -12 246 -2 288 4 15
2 29 -4 33 -16 9 -27 81 -13 81 8 0 11 21 10 64 -2 60 0 65 29 92 17 16 34 41
38 57 l6 27 -270 0 -270 0 -6 -33 c-4 -20 -22 -49 -45 -71 -69 -68 -79 -204
-24 -329 14 -31 23 -60 20 -63 -16 -16 -58 9 -75 44 -14 31 -23 38 -52 40 -19
2 -40 8 -46 13 -6 5 -16 41 -23 79 -11 62 -11 73 2 88 8 9 17 28 19 42 2 19
10 26 31 28 31 4 32 7 12 55 -8 20 -15 52 -15 72 l0 35 -2675 0 -2675 0 0
-8890z m8115 8850 c0 -8 -8 -16 -17 -18 -13 -2 -18 3 -18 18 0 15 5 20 18 18
9 -2 17 -10 17 -18z m4985 -33 c0 -4 6 -15 15 -23 8 -9 15 -20 15 -26 0 -6 -3
-9 -6 -5 -3 3 -14 -3 -25 -14 -22 -22 -67 -25 -75 -5 -3 8 0 25 7 38 7 13 12
26 11 30 -1 4 4 5 12 2 8 -3 17 0 21 6 7 12 27 10 25 -3z m-4924 -34 c19 -20
34 -45 34 -55 0 -20 31 -38 37 -22 9 25 22 35 49 37 l29 2 -3 -65 c-4 -79 -19
-99 -61 -84 -22 9 -30 8 -38 -4 -16 -27 -40 -5 -54 49 -11 41 -19 53 -40 61
-21 7 -28 17 -32 51 -10 74 26 88 79 30z m5080 12 c7 -17 -14 -74 -27 -76 -25
-5 -34 -3 -35 6 0 6 -4 18 -8 27 -11 25 11 58 40 58 13 0 27 -7 30 -15z
m-6939 -27 c-3 -8 -6 -5 -6 6 -1 11 2 17 5 13 3 -3 4 -12 1 -19z m7229 -9 c3
-6 -1 -18 -10 -27 -10 -11 -16 -12 -16 -4 0 7 -9 12 -19 12 -24 0 -36 16 -19
23 23 10 57 7 64 -4z m-878 -96 c-1 -46 -9 -56 -67 -88 -20 -11 -36 -27 -36
-35 0 -8 -9 -15 -20 -15 -14 0 -21 8 -23 25 -2 14 -11 33 -20 43 -22 24 -5 38
49 40 24 1 44 7 45 12 0 6 4 18 8 28 5 9 6 26 3 37 -3 12 1 24 11 29 27 15 52
-24 50 -76z m502 77 c0 -5 -4 -10 -10 -10 -5 0 -10 5 -10 10 0 6 5 10 10 10 6
0 10 -4 10 -10z m-250 -23 c0 -7 12 -24 27 -37 l27 -23 -30 -14 c-22 -11 -36
-12 -56 -4 -24 9 -27 14 -19 33 5 13 12 31 15 41 6 20 36 23 36 4z m-6593 -29
c-3 -8 -6 -5 -6 6 -1 11 2 17 5 13 3 -3 4 -12 1 -19z m6953 -2 c0 -8 -5 -16
-12 -18 -23 -8 1 -38 31 -38 37 0 50 -19 26 -37 -28 -20 -55 -16 -55 7 0 16
-6 20 -32 18 -26 -2 -33 1 -32 15 1 9 -2 17 -7 17 -19 0 -8 20 19 34 35 19 62
20 62 2z m-1520 -26 c0 -5 -5 -10 -11 -10 -5 0 -7 5 -4 10 3 6 8 10 11 10 2 0
4 -4 4 -10z m-4445 -85 c0 -10 6 -20 13 -23 12 -4 17 -32 5 -32 -3 0 -15 7
-25 17 -21 18 -25 67 -5 60 6 -2 12 -12 12 -22z m5841 -2 c-10 -10 -19 5 -10
18 6 11 8 11 12 0 2 -7 1 -15 -2 -18z m-184 -2 c-23 -14 6 -71 37 -71 10 0 12
-3 5 -8 -13 -9 -44 -70 -44 -87 0 -7 -7 -18 -15 -25 -8 -7 -15 -21 -15 -31 0
-11 -5 -19 -11 -19 -7 0 -9 9 -6 23 15 58 19 107 9 107 -6 0 -12 -6 -15 -12
-10 -29 -14 0 -7 51 7 55 39 99 62 85 7 -4 7 -9 0 -13z m-1031 -34 c-8 -8 -11
-7 -11 4 0 9 3 19 7 23 4 4 9 2 11 -4 3 -7 -1 -17 -7 -23z m-45 -2 c9 -14 20
-22 25 -19 5 3 9 -11 9 -32 l0 -37 -20 26 c-11 14 -20 30 -20 35 0 5 -7 15
-15 22 -8 7 -15 16 -15 21 0 17 20 9 36 -16z m1269 5 c-3 -5 -11 -10 -16 -10
-6 0 -7 5 -4 10 3 6 11 10 16 10 6 0 7 -4 4 -10z m-6435 -43 c0 -13 5 -28 12
-35 17 -17 2 -28 -17 -12 -17 14 -21 70 -5 70 6 0 10 -10 10 -23z m6530 -2
c14 -38 3 -52 -47 -59 -26 -3 -48 -5 -50 -3 -7 7 60 87 73 87 8 0 19 -11 24
-25z m-826 1 c19 -8 38 -22 44 -31 12 -22 4 -55 -13 -55 -7 0 -16 -11 -19 -25
-10 -40 -49 -33 -102 21 -25 25 -43 51 -41 58 5 14 64 45 85 46 7 0 28 -6 46
-14z m-5901 -10 c3 -7 0 -19 -6 -25 -8 -8 -6 -16 6 -29 18 -20 23 -91 11 -152
l-7 -32 -13 23 c-7 13 -13 32 -14 42 0 10 -7 32 -16 49 -15 29 -15 34 0 65 9
18 16 43 16 53 0 23 15 27 23 6z m6941 -2 c9 -22 -11 -44 -40 -44 -16 0 -24 6
-24 18 0 38 52 58 64 26z m-709 -14 c7 -11 -17 -61 -38 -78 -19 -16 -50 18
-45 49 4 29 69 52 83 29z m345 -30 c7 -16 16 -30 21 -30 5 0 6 -7 2 -16 -4
-10 1 -17 16 -21 25 -6 25 -7 -2 -58 -16 -29 -29 -41 -50 -43 -15 -2 -27 -8
-27 -13 0 -5 -5 -9 -12 -9 -9 0 -9 3 -1 11 7 7 8 24 2 47 -5 25 -3 46 7 70 8
19 14 47 14 63 0 38 14 37 30 -1z m-1690 -41 c0 -35 -22 -65 -53 -75 -43 -12
-49 -54 -13 -78 34 -22 34 -54 1 -62 -29 -7 -55 10 -55 37 0 11 -4 19 -10 19
-16 0 -12 26 6 41 12 10 14 23 10 52 l-7 39 31 -7 c27 -6 30 -4 30 19 0 14 5
36 12 50 l11 26 19 -22 c10 -11 18 -29 18 -39z m-3213 19 c25 -50 27 -115 7
-174 -10 -30 -26 -62 -35 -70 -15 -14 -19 -11 -43 32 -31 55 -33 98 -7 116 13
9 21 32 26 71 6 46 11 57 24 55 9 -2 22 -15 28 -30z m-1447 -50 c0 -10 9 -37
20 -59 l21 -40 -21 -29 c-12 -16 -36 -33 -53 -38 -18 -5 -31 -11 -29 -15 1 -4
2 -14 2 -22 0 -8 6 -15 14 -15 7 0 19 -7 26 -15 7 -9 29 -15 52 -15 55 0 91
-22 113 -69 10 -23 22 -41 28 -41 5 0 5 -6 -2 -13 -8 -11 -6 -19 9 -37 17 -20
18 -24 4 -38 -11 -10 -14 -24 -9 -41 4 -14 9 -45 12 -68 3 -26 10 -43 18 -43
8 0 15 -17 17 -47 5 -56 -6 -76 -26 -48 -13 18 -14 18 -25 -3 -13 -25 -7 -42
15 -42 8 0 14 -1 14 -3 0 -1 4 -17 9 -35 8 -27 7 -34 -10 -43 -24 -12 -43 -2
-110 61 -35 32 -50 40 -70 36 -26 -5 -26 -4 -37 77 -7 45 -14 122 -16 171 -4
98 -15 117 -61 108 -14 -2 -25 -1 -24 4 7 38 -2 54 -29 54 -16 0 -37 -7 -48
-15 -29 -22 -34 -18 -34 21 0 19 -5 45 -11 56 -10 19 -9 20 15 14 25 -6 32 4
27 36 0 4 18 12 42 19 86 23 94 31 99 101 3 35 10 76 17 92 9 23 14 26 26 16
8 -7 15 -21 15 -32z m6875 32 c9 -15 -4 -50 -20 -50 -18 0 -28 30 -14 46 14
17 25 18 34 4z m-1095 -35 c0 -8 -6 -15 -14 -15 -8 0 -16 -6 -19 -12 -2 -7 -7
-10 -11 -6 -11 10 12 48 29 48 8 0 15 -7 15 -15z m-8665 -35 c3 -11 3 -30 -1
-42 -7 -22 -7 -22 -15 -3 -11 28 -11 65 0 65 5 0 13 -9 16 -20z m7588 -12 c31
-15 32 -42 1 -46 -23 -3 -59 31 -49 47 8 14 15 14 48 -1z m1221 -29 c36 -21
56 -19 56 7 0 10 13 14 50 14 44 0 50 -3 56 -24 3 -14 3 -30 -1 -36 -4 -6 1
-20 10 -30 16 -17 15 -20 -6 -49 -30 -41 -58 -49 -78 -23 -23 28 -58 44 -94
41 -18 -1 -51 -1 -74 0 -36 1 -43 4 -43 22 0 18 6 20 43 19 67 -3 69 -2 61 23
-3 12 -13 26 -21 30 -7 5 -11 12 -8 18 8 12 9 12 49 -12z m-8797 -31 c-3 -8
-6 -5 -6 6 -1 11 2 17 5 13 3 -3 4 -12 1 -19z m9450 6 c2 -5 -3 -19 -12 -29
-14 -19 -14 -18 -15 13 0 31 18 42 27 16z m-7137 -8 c0 -8 -4 -18 -10 -21 -5
-3 -10 -15 -10 -25 0 -16 5 -18 34 -13 41 6 54 -10 25 -30 -14 -10 -19 -21
-15 -34 4 -12 -1 -28 -13 -42 -14 -16 -18 -31 -14 -52 l6 -29 -56 0 c-52 0
-56 2 -71 32 -19 37 -21 146 -3 169 7 9 29 21 49 28 21 7 40 17 43 22 9 14 35
11 35 -5z m-2330 -26 c0 -11 -4 -20 -10 -20 -5 0 -10 9 -10 20 0 11 5 20 10
20 6 0 10 -9 10 -20z m3170 6 c0 -14 -24 -29 -33 -19 -3 3 -3 11 0 19 7 18 33
18 33 0z m5500 -1 c11 -13 9 -20 -9 -39 l-22 -23 21 -6 c18 -5 20 -9 10 -26
-13 -25 -66 -31 -56 -6 3 8 -1 21 -9 29 -20 20 -19 25 10 36 15 6 25 17 25 30
0 24 13 26 30 5z m-7170 -16 c0 -5 -7 -9 -15 -9 -15 0 -20 12 -9 23 8 8 24 -1
24 -14z m1009 7 c14 -17 4 -46 -15 -46 -18 0 -28 24 -20 45 7 19 20 19 35 1z
m5554 -124 c5 -7 13 -10 18 -6 6 3 16 3 24 1 20 -8 -3 -64 -43 -106 -29 -30
-62 -37 -62 -12 0 12 29 23 41 15 5 -3 9 -1 9 5 0 5 -6 12 -12 15 -9 3 -3 14
17 31 30 25 30 25 8 31 -13 4 -20 11 -17 16 4 6 -1 8 -14 4 -15 -5 -21 -1 -25
15 -8 29 3 79 22 105 15 21 16 19 21 -40 3 -33 9 -67 13 -74z m-357 91 c-10
-10 -19 5 -10 18 6 11 8 11 12 0 2 -7 1 -15 -2 -18z m-2011 -17 c40 -17 44
-29 14 -49 l-20 -15 22 -15 22 -16 -27 -35 c-31 -41 -47 -51 -98 -59 -41 -6
-54 4 -60 46 -2 21 3 30 21 40 38 19 47 41 31 72 -12 23 -12 28 0 35 22 14 56
12 95 -4z m-3101 -12 c22 -9 20 -34 -3 -34 -27 0 -39 -20 -43 -70 -2 -38 -7
-46 -25 -48 -22 -3 -28 12 -36 88 -1 8 15 22 35 32 20 10 39 22 43 28 7 12 8
12 29 4z m6136 -4 c0 -5 -4 -10 -9 -10 -6 0 -13 5 -16 10 -3 6 1 10 9 10 9 0
16 -4 16 -10z m572 -19 c17 -16 8 -163 -10 -175 -10 -6 -72 24 -92 43 -10 10
-15 34 -15 75 0 56 2 61 25 67 26 7 80 2 92 -10z m-7384 -19 c2 -14 -2 -22
-12 -22 -19 0 -29 17 -22 36 8 22 30 12 34 -14z m-1898 4 c0 -15 -29 -30 -39
-20 -3 3 3 12 13 20 24 17 26 17 26 0z m7693 -5 c5 -5 2 -20 -8 -35 -17 -25
-19 -26 -36 -10 -11 10 -19 23 -19 31 0 7 -9 13 -20 13 -11 0 -20 5 -20 11 0
13 88 5 103 -10z m-6323 -49 c0 -13 -3 -12 -20 3 -11 10 -17 22 -14 27 8 12
34 -11 34 -30z m7102 -11 c-5 -3 -14 -15 -20 -26 -11 -21 -57 -32 -67 -16 -7
12 34 41 58 41 12 0 17 5 14 14 -3 7 0 19 6 25 9 10 13 7 15 -10 2 -12 0 -24
-6 -28z m111 34 c18 -13 18 -14 -2 -34 -25 -25 -39 -27 -47 -7 -6 15 12 56 24
56 4 0 15 -7 25 -15z m401 -10 c-7 -17 -16 -19 -29 -6 -6 5 -19 11 -30 14 -11
3 -1 5 22 6 34 1 41 -2 37 -14z m-8987 -57 c-2 -13 -4 -3 -4 22 0 25 2 35 4
23 2 -13 2 -33 0 -45z m7603 31 c0 -5 -4 -9 -10 -9 -5 0 -10 7 -10 16 0 8 5
12 10 9 6 -3 10 -10 10 -16z m1260 -13 c60 -21 77 -56 60 -126 -6 -27 -9 -54
-5 -59 3 -6 -15 -20 -40 -32 -42 -20 -65 -48 -65 -80 0 -15 77 -10 94 7 15 14
17 14 23 -2 4 -10 2 -19 -5 -22 -14 -4 -16 -52 -2 -52 5 0 21 12 35 26 l26 26
16 -21 c10 -15 12 -26 5 -34 -6 -7 -12 -34 -15 -62 -3 -27 -9 -65 -12 -82 -10
-46 1 -83 24 -83 15 0 21 10 26 41 8 48 30 105 44 113 5 3 14 28 21 56 l12 50
65 0 c44 0 62 3 57 11 -4 8 3 9 24 4 28 -6 31 -4 37 27 10 45 25 51 53 22 14
-13 31 -24 38 -24 21 0 17 -9 -22 -57 -21 -26 -34 -52 -33 -66 4 -34 -10 -65
-32 -72 -29 -9 -34 0 -17 27 19 29 7 68 -20 68 -19 0 -42 -37 -42 -69 0 -10
-9 -26 -20 -36 -27 -24 -25 -35 5 -35 32 0 33 -4 39 -120 4 -94 5 -95 40 -128
36 -32 36 -33 21 -62 -8 -16 -27 -33 -40 -36 -14 -3 -25 -13 -25 -20 0 -11 7
-13 27 -8 35 9 74 30 83 44 4 6 37 11 80 12 40 0 84 6 98 14 15 7 29 9 32 5 3
-5 14 -10 25 -12 11 -2 26 -18 34 -36 8 -17 22 -34 32 -36 24 -6 25 -50 3 -92
-8 -16 -13 -37 -11 -47 6 -20 -23 -33 -56 -24 -23 5 -62 60 -53 74 11 19 -25
52 -57 52 -24 0 -28 3 -19 12 26 26 13 38 -43 38 -30 0 -54 -3 -53 -7 0 -5 -2
-16 -6 -25 -5 -11 0 -24 13 -37 21 -21 20 -46 -3 -54 -14 -5 -58 28 -49 37 10
10 -26 18 -52 12 -18 -5 -26 -15 -30 -40 -5 -24 -15 -37 -38 -47 -38 -17 -45
-35 -18 -44 12 -3 21 -13 21 -21 0 -18 -36 -18 -43 0 -4 10 -22 14 -61 13 -31
-1 -57 -4 -57 -7 -1 -3 -3 -15 -4 -27 -1 -12 -10 -34 -20 -49 -26 -40 -6 -114
31 -114 8 0 14 7 14 15 0 8 11 21 23 30 13 8 29 27 36 41 8 19 17 25 31 21 11
-3 18 -1 15 3 -3 5 18 20 47 34 29 14 48 26 43 26 -5 0 2 11 14 24 13 14 20
29 16 35 -3 6 1 11 9 11 9 0 16 8 16 18 0 13 2 14 9 3 5 -7 14 -10 21 -6 16
10 60 -15 60 -34 -1 -17 -63 -50 -114 -60 -26 -6 -32 -12 -37 -44 -9 -54 -28
-84 -58 -91 -44 -9 -54 -22 -56 -68 -2 -43 -28 -98 -46 -98 -5 0 -9 -6 -9 -13
0 -16 -38 -40 -50 -32 -6 4 -10 13 -10 20 0 8 -17 26 -38 40 -28 18 -38 32
-40 55 -2 24 2 30 17 30 15 0 18 7 17 38 -2 21 -7 37 -14 36 -7 -1 -18 -2 -25
-2 -8 -1 -20 -14 -27 -28 -11 -20 -12 -29 -1 -45 9 -15 9 -24 1 -34 -8 -9 -8
-15 0 -20 5 -3 10 -21 10 -39 0 -25 7 -38 25 -50 14 -9 25 -25 25 -36 0 -10 5
-22 10 -25 20 -12 9 -26 -17 -23 -23 2 -28 -1 -26 -16 2 -21 -18 -41 -55 -56
-13 -6 -20 -15 -17 -20 10 -16 -14 -40 -32 -33 -11 4 -14 2 -9 -5 4 -7 2 -12
-3 -12 -16 0 -13 47 3 53 11 4 13 16 9 40 -3 20 -1 37 6 41 17 11 13 24 -8 31
-13 4 -21 17 -23 38 -2 24 -8 33 -25 35 -29 4 -47 -30 -40 -79 6 -44 -11 -74
-48 -83 -17 -4 -24 -12 -22 -26 1 -10 -2 -19 -8 -19 -5 0 -10 8 -10 18 0 10
-6 25 -13 34 -8 9 -11 21 -7 27 10 17 -3 77 -21 95 -9 8 -33 15 -55 15 l-39 0
0 45 c0 29 4 45 13 45 6 0 30 14 51 30 22 17 45 30 52 30 6 0 15 7 18 16 3 8
10 12 16 9 5 -3 10 -1 10 4 0 17 30 13 36 -4 4 -8 15 -15 26 -15 13 0 17 4 11
13 -13 21 -14 51 -2 75 11 19 10 24 -7 37 -34 26 -69 18 -90 -20 -14 -26 -84
-35 -84 -11 0 9 7 16 15 16 22 0 18 30 -7 57 -26 28 -38 29 -38 4 0 -11 -4
-23 -10 -26 -5 -3 -10 1 -10 9 0 8 -6 21 -12 28 -28 29 -42 68 -30 80 9 9 19
5 42 -17 25 -24 34 -27 48 -19 11 7 16 21 14 37 -3 21 2 28 22 33 31 7 35 24
6 24 -11 0 -36 8 -55 19 l-34 18 24 11 c30 14 33 32 5 32 -21 0 -27 15 -10 25
21 13 -2 32 -38 29 -20 -1 -56 -2 -79 -3 -41 -1 -43 -3 -43 -30 0 -33 -2 -35
-42 -45 -25 -6 -28 -4 -28 19 0 16 9 30 28 42 15 9 28 18 30 19 2 1 -1 10 -7
21 -5 10 -12 26 -15 37 -4 11 -12 16 -21 12 -24 -9 -45 4 -45 29 0 14 7 25 20
28 25 6 60 -2 60 -15 0 -5 9 -4 20 2 17 9 25 6 46 -15 32 -32 44 -32 44 3 0
15 4 34 10 42 13 21 -8 44 -26 29 -11 -9 -14 -7 -14 13 0 17 8 29 28 37 15 8
57 29 93 47 37 19 80 34 97 34 22 0 38 9 60 34 51 58 56 104 8 72 -14 -9 -34
-16 -46 -16 -11 0 -28 -9 -37 -19 -13 -16 -20 -18 -37 -9 -12 6 -24 16 -28 22
-11 16 -10 64 1 71 5 3 13 31 17 62 4 32 13 63 20 70 8 8 12 31 10 58 -1 25 1
45 6 45 4 0 8 -7 8 -15 0 -8 8 -15 18 -15 13 0 21 13 30 45 7 25 16 45 20 45
24 0 52 43 52 81 0 51 25 92 48 79 10 -4 37 -15 62 -24z m560 9 c0 -16 -27
-32 -37 -22 -3 4 -3 13 0 22 8 20 37 20 37 0z m-9443 -32 c-3 -10 -5 -4 -5 12
0 17 2 24 5 18 2 -7 2 -21 0 -30z m7650 -28 c1 -16 5 -43 8 -58 5 -20 3 -33
-10 -47 -35 -39 -79 -17 -91 45 -8 45 28 96 66 92 20 -2 25 -8 27 -32z m811
-45 c14 -39 -5 -67 -35 -52 -27 15 -37 63 -16 79 21 16 40 6 51 -27z m700 33
c47 -5 53 -8 50 -27 -2 -17 -10 -21 -38 -21 -27 0 -39 -6 -52 -26 -12 -20 -22
-25 -41 -22 -21 4 -27 13 -32 44 -11 62 -1 66 113 52z m-6914 -56 c11 -32 -2
-51 -27 -41 -10 4 -17 17 -17 33 0 49 28 54 44 8z m5970 -9 c8 -39 0 -47 -50
-55 -21 -3 -44 -12 -51 -20 -9 -11 -16 -12 -32 -3 -36 19 -25 39 22 42 33 2
42 7 42 21 0 16 36 45 56 47 4 0 9 -14 13 -32z m-5880 -23 c3 -11 1 -27 -4
-35 -8 -13 -11 -13 -26 2 -15 15 -16 21 -5 44 12 28 24 24 35 -11z m5971 16
c3 -5 1 -12 -5 -16 -5 -3 -10 1 -10 9 0 18 6 21 15 7z m-6378 -13 c15 -6 45
-12 67 -12 36 -1 39 -3 58 -50 18 -47 18 -51 1 -100 -9 -28 -18 -53 -19 -54
-1 -2 -32 10 -67 27 -36 17 -73 31 -83 31 -44 1 -48 14 -24 81 12 35 23 70 25
77 5 15 7 15 42 0z m-777 -13 c0 -9 -9 -15 -21 -15 -18 0 -19 2 -9 15 7 8 16
15 21 15 5 0 9 -7 9 -15z m6825 -15 c20 -39 19 -82 -3 -111 -10 -13 -21 -32
-25 -41 -4 -10 -12 -15 -21 -12 -8 3 -17 1 -21 -5 -22 -37 -22 14 0 85 4 12 2
25 -4 28 -15 9 -14 59 1 74 22 22 57 14 73 -18z m-6897 -15 c3 -28 -13 -49
-32 -42 -10 4 -16 18 -16 37 0 27 3 31 23 28 13 -2 23 -11 25 -23z m8147 15
c3 -5 -2 -32 -11 -60 -13 -41 -20 -50 -40 -50 -26 0 -24 24 2 34 8 3 14 11 13
18 -3 20 12 68 21 68 5 0 11 -4 15 -10z m-100 -10 c3 -5 1 -10 -4 -10 -6 0
-11 5 -11 10 0 6 2 10 4 10 3 0 8 -4 11 -10z m-725 -14 c0 -8 -4 -17 -9 -21
-12 -7 -24 12 -16 25 9 15 25 12 25 -4z m155 4 c-6 -10 -40 -8 -51 3 -4 4 7 7
25 7 19 0 30 -4 26 -10z m-45 -59 c0 -11 -5 -23 -11 -27 -15 -9 -33 12 -26 30
9 23 37 20 37 -3z m-105 -1 c22 -8 24 -12 13 -23 -7 -8 -24 -19 -36 -26 -18
-10 -22 -19 -20 -44 3 -35 -13 -44 -58 -33 -41 11 -28 69 24 113 30 26 40 27
77 13z m-2715 -10 c0 -5 -5 -10 -11 -10 -5 0 -7 5 -4 10 3 6 8 10 11 10 2 0 4
-4 4 -10z m3790 -14 c0 -3 -4 -8 -10 -11 -5 -3 -10 -1 -10 4 0 6 5 11 10 11 6
0 10 -2 10 -4z m-8469 -13 c1 -5 3 -17 6 -28 2 -11 8 -69 13 -130 5 -60 14
-153 19 -205 13 -118 34 -478 35 -585 1 -79 1 -80 -25 -83 -45 -5 -57 21 -69
163 -7 72 -14 166 -16 210 -2 44 -7 94 -9 110 -6 33 -20 188 -35 395 -9 123
-9 136 7 148 18 13 72 17 74 5z m4629 -3 c-20 -13 -33 -13 -25 0 3 6 14 10 23
10 15 0 15 -2 2 -10z m2536 -25 c7 -17 -55 -95 -75 -95 -17 0 -8 52 14 87 17
26 53 31 61 8z m1397 -97 c-21 -21 -53 -19 -53 2 0 6 12 23 27 38 l26 26 10
-22 c9 -19 6 -27 -10 -44z m-1253 2 c0 -11 0 -23 1 -27 0 -5 -6 -9 -14 -11 -9
-2 -14 7 -15 28 0 20 4 30 14 30 8 0 14 -9 14 -20z m-210 -30 c0 -5 -2 -10 -4
-10 -3 0 -8 5 -11 10 -3 6 -1 10 4 10 6 0 11 -4 11 -10z m-6960 -56 c0 -19 5
-45 11 -56 15 -28 -2 -44 -30 -29 -23 13 -28 52 -11 95 14 37 30 32 30 -10z
m3040 25 c0 -6 -11 -29 -24 -52 -14 -23 -34 -67 -46 -98 -11 -31 -38 -82 -60
-113 -22 -31 -40 -60 -40 -65 0 -4 -7 -16 -15 -27 -14 -19 -14 -19 -15 3 0 12
7 28 15 37 8 8 12 21 9 30 -8 22 70 179 104 207 15 13 34 39 41 57 13 31 31
43 31 21z m4206 -12 c8 -24 -4 -36 -16 -17 -9 14 -11 13 -14 -9 -1 -11 -51
-51 -63 -51 -4 0 -9 -13 -10 -28 -2 -24 4 -32 33 -45 18 -9 34 -20 34 -25 0
-21 -72 -101 -91 -102 -4 0 -9 9 -12 20 -3 11 -13 23 -24 27 -10 4 -24 13 -31
20 -7 7 -21 13 -31 13 -10 0 -28 11 -41 25 -18 20 -21 28 -12 37 9 9 12 9 12
-1 0 -7 5 -9 12 -5 7 4 35 8 63 8 31 1 50 6 50 13 0 6 10 23 23 38 17 20 22
34 17 52 -9 36 10 53 56 50 28 -1 41 -7 45 -20z m-6556 -124 c0 -14 -27 -29
-36 -21 -2 3 -1 20 2 38 7 30 8 32 21 15 7 -11 13 -25 13 -32z m7520 -3 c0 -5
19 -28 42 -50 35 -34 41 -43 32 -58 -6 -9 -21 -16 -32 -14 -11 2 -23 -2 -27
-8 -10 -15 -19 -12 -34 13 -17 26 -31 95 -24 114 6 15 43 18 43 3z m278 -13
c17 -20 -11 -47 -54 -52 -22 -2 -31 -2 -22 1 9 3 21 18 27 35 10 30 31 38 49
16z m312 -9 c0 -16 -3 -19 -11 -11 -6 6 -8 16 -5 22 11 17 16 13 16 -11z
m-7025 -47 c3 -5 -3 -16 -12 -23 -10 -7 -31 -33 -48 -57 -30 -44 -71 -69 -87
-53 -12 12 24 54 66 77 20 11 36 27 36 36 0 27 31 41 45 20z m6933 -8 c-4 -22
-58 -31 -58 -10 0 20 10 27 37 27 18 0 24 -5 21 -17z m-414 -79 c8 -20 -1 -34
-21 -34 -13 0 -13 3 -2 16 10 13 10 17 -2 25 -12 7 -11 9 2 9 9 0 20 -7 23
-16z m-6664 -68 c0 -3 -4 -8 -10 -11 -5 -3 -10 -1 -10 4 0 6 5 11 10 11 6 0
10 -2 10 -4z m7170 -38 c-1 -31 -1 -32 -15 -14 -11 14 -12 23 -4 33 17 19 19
17 19 -19z m-7040 -2 c0 -3 -4 -8 -10 -11 -5 -3 -10 -1 -10 4 0 6 5 11 10 11
6 0 10 -2 10 -4z m70 -67 c-19 -16 -41 -34 -47 -40 -7 -5 -13 -21 -13 -35 0
-14 -7 -27 -17 -31 -10 -3 -33 -17 -51 -31 -26 -19 -36 -22 -45 -12 -9 9 1 24
44 63 31 29 59 60 62 70 4 9 16 17 27 17 11 0 23 7 26 15 4 8 16 15 28 15 19
-1 17 -4 -14 -31z m980 -20 c-7 -11 -14 -18 -17 -15 -8 8 5 36 17 36 7 0 7 -6
0 -21z m5987 -11 c-3 -8 -6 -5 -6 6 -1 11 2 17 5 13 3 -3 4 -12 1 -19z m-1721
-24 c-4 -12 -10 -14 -17 -7 -5 5 -7 17 -3 27 4 12 10 14 17 7 5 -5 7 -17 3
-27z m1608 -23 c3 -4 -3 -19 -14 -31 -15 -18 -20 -19 -20 -7 0 36 21 60 34 38z
m-344 -36 c0 -8 -4 -15 -10 -15 -5 0 -10 7 -10 15 0 8 5 15 10 15 6 0 10 -7
10 -15z m21 -107 c10 -13 18 -33 19 -45 0 -17 6 -23 24 -23 19 0 25 7 30 34 4
19 14 40 22 47 14 11 19 10 34 -8 9 -12 29 -25 43 -28 13 -4 34 -18 46 -31 22
-26 44 -25 34 1 -7 20 21 20 40 1 16 -16 11 -66 -7 -78 -6 -4 -18 0 -27 8 -18
16 -31 7 -43 -31 -6 -21 -65 -60 -75 -50 -3 3 0 10 7 14 10 6 7 14 -9 34 -11
15 -25 24 -31 21 -6 -4 -5 -9 3 -15 11 -6 10 -9 -4 -15 -9 -3 -24 -1 -32 6
-12 10 -15 9 -15 -5 0 -9 -9 -24 -21 -33 -13 -12 -18 -23 -13 -35 8 -23 27
-17 34 10 5 21 5 21 28 3 13 -11 28 -36 34 -57 9 -32 7 -39 -9 -50 -10 -7 -31
-25 -46 -40 l-29 -26 34 -14 c26 -11 30 -16 18 -23 -8 -5 -22 -8 -30 -5 -8 2
-23 -7 -33 -20 -18 -25 -18 -25 6 -25 21 0 45 -26 34 -37 -7 -6 -67 10 -67 18
0 5 -5 9 -11 9 -7 0 -10 -12 -7 -30 3 -19 0 -30 -8 -30 -6 0 -14 -7 -18 -15
-3 -8 -17 -15 -31 -15 -27 0 -33 -18 -13 -38 9 -9 9 -12 0 -12 -7 0 -12 -4
-12 -10 0 -5 11 -10 25 -10 15 0 25 6 25 15 0 22 38 39 56 25 7 -7 11 -16 8
-21 -12 -19 7 -27 41 -16 19 5 32 13 30 17 -2 4 2 15 9 25 13 18 14 18 27 -2
18 -30 49 -13 49 27 0 17 5 30 10 30 6 0 10 7 10 15 0 17 66 53 77 42 4 -4 9
-34 11 -67 l4 -59 -38 -18 c-22 -10 -40 -21 -42 -25 -2 -5 -18 -8 -36 -8 -22
0 -40 -8 -56 -25 -13 -14 -30 -25 -37 -25 -19 0 -42 -52 -25 -58 6 -2 12 -10
12 -18 0 -22 11 -17 46 21 17 19 39 35 48 35 23 0 57 -37 50 -55 -9 -23 14
-45 47 -45 19 0 29 -5 29 -15 0 -8 -9 -15 -20 -15 -21 0 -26 -20 -22 -82 1
-16 -2 -28 -8 -28 -5 0 -10 -5 -10 -11 0 -7 -8 -19 -19 -28 -23 -20 -34 -55
-26 -82 7 -21 25 -22 80 -4 16 5 17 5 5 -3 -12 -9 -11 -14 5 -32 16 -18 28
-21 77 -18 37 2 58 -1 58 -8 0 -6 7 -11 15 -11 10 0 15 11 15 34 0 18 -5 33
-11 33 -7 0 -8 7 -4 18 5 9 11 35 15 57 4 22 8 -274 9 -657 l1 -698 -22 -1
c-34 -2 -76 -2 -143 0 -132 2 -371 -5 -383 -13 -7 -4 -10 -12 -7 -17 4 -5 -1
-9 -9 -9 -9 0 -15 6 -14 13 4 15 -52 12 -62 -4 -5 -8 -37 -10 -104 -7 -52 3
-97 1 -98 -3 -3 -8 -46 -9 -254 -10 -62 0 -125 -3 -141 -8 -20 -6 -32 -4 -41
6 -7 7 -28 14 -45 14 -92 0 -97 2 -97 35 0 23 6 34 25 42 14 6 25 20 25 29 0
10 6 29 13 43 10 20 10 34 0 73 -7 27 -10 61 -7 76 4 20 -1 35 -19 57 -32 37
-97 229 -97 284 0 10 -9 25 -20 33 -13 9 -21 30 -26 69 -6 51 -5 55 16 61 13
3 32 1 43 -4 10 -6 29 -8 40 -5 13 3 29 -2 40 -12 18 -16 20 -16 33 3 8 10 14
16 14 12 0 -4 9 -3 20 3 29 15 90 149 92 201 2 51 27 78 73 79 44 0 59 -13 51
-44 -6 -25 -5 -26 14 -14 11 7 20 23 20 35 0 22 -9 27 -37 24 -9 -1 -10 6 -2
27 12 34 -3 82 -25 82 -25 0 -46 -12 -46 -26 0 -21 -29 -17 -66 8 -32 22 -36
34 -47 138 -3 37 36 39 66 4 14 -16 29 -24 36 -20 6 4 9 11 7 15 -3 4 8 15 23
24 26 15 29 23 36 99 10 115 9 139 -9 173 -8 16 -12 32 -7 35 5 3 12 30 16 60
4 30 10 59 13 65 4 5 5 22 3 37 -1 16 2 28 8 28 7 0 16 12 22 28 9 24 12 25
20 10 6 -10 15 -18 20 -18 13 0 39 -25 39 -38 0 -5 14 -15 30 -22 43 -18 70 7
70 64 l0 41 -61 2 c-64 1 -83 8 -60 23 8 4 11 15 8 24 -4 10 -1 16 8 16 8 0
15 5 15 10 0 14 19 12 36 -4 16 -17 50 -10 58 10 3 9 -4 19 -18 26 -24 10 -40
43 -30 60 3 4 25 8 50 8 39 0 46 3 54 28 19 52 34 73 62 90 15 9 28 24 28 34
0 10 3 18 8 19 4 0 20 2 37 4 16 2 35 -1 43 -7 18 -16 61 36 62 75 0 15 3 27
8 27 4 0 13 4 20 9 11 7 11 12 1 28 -20 33 -5 55 34 48 24 -5 37 -2 46 9 18
22 29 20 52 -6z m-6791 -32 c0 -2 -7 -9 -15 -16 -12 -10 -15 -10 -15 4 0 9 7
16 15 16 8 0 15 -2 15 -4z m-137 -41 c1 -6 -17 -11 -40 -12 -46 -2 -57 12 -20
26 24 9 57 1 60 -14z m7364 -17 c-3 -8 -6 -5 -6 6 -1 11 2 17 5 13 3 -3 4 -12
1 -19z m-131 -74 c-4 -9 -1 -23 5 -30 8 -10 8 -14 0 -14 -6 0 -11 -6 -11 -14
0 -17 -36 -10 -43 7 -8 22 12 59 28 53 8 -3 15 -1 15 4 0 6 3 10 6 10 3 0 3
-7 0 -16z m-7510 -50 c18 -5 20 -10 13 -62 -4 -31 -14 -82 -22 -112 -9 -30
-13 -58 -11 -62 8 -12 -21 -37 -42 -36 -11 0 -27 -3 -36 -6 -11 -5 -20 -1 -28
13 -9 18 -7 23 14 32 33 15 40 37 21 66 -16 24 -12 87 6 99 5 3 9 18 9 34 0
36 26 48 76 34z m324 -55 c0 -5 -7 -9 -15 -9 -15 0 -20 12 -9 23 8 8 24 -1 24
-14z m7320 -31 c0 -23 -3 -29 -11 -21 -6 6 -8 20 -4 32 9 30 15 26 15 -11z
m-8780 -63 c0 -8 6 -15 13 -16 32 -3 84 4 101 13 12 6 21 7 25 1 8 -13 60 -25
73 -17 14 9 148 15 171 8 25 -8 21 -37 -9 -68 -31 -31 -54 -34 -54 -7 0 17
-18 31 -41 31 -5 0 -9 -9 -9 -20 0 -11 6 -20 13 -20 8 0 8 -3 -2 -9 -11 -7 -7
-13 17 -25 36 -19 100 -23 69 -5 -18 11 -18 12 2 30 22 20 41 25 41 10 0 -5
10 -13 22 -17 21 -6 21 -7 4 -20 -17 -12 -15 -14 15 -22 42 -11 67 -5 79 18 7
14 19 16 62 12 29 -2 60 -11 69 -19 22 -19 86 -7 100 18 14 28 31 23 57 -14
29 -43 28 -61 -5 -87 -16 -12 -33 -31 -40 -43 -10 -20 -12 -20 -18 -5 -6 16
-24 17 -167 17 -89 0 -167 -3 -174 -6 -8 -3 -14 -13 -14 -23 0 -10 -9 -22 -20
-25 -17 -6 -18 -8 -6 -21 23 -22 56 -31 121 -32 60 -1 145 13 177 29 10 5 20
5 23 -1 4 -6 21 -10 38 -10 18 0 49 -2 70 -5 28 -4 37 -2 37 9 0 10 -10 14
-35 12 -24 -2 -35 1 -35 10 0 17 5 17 50 3 67 -20 87 -21 94 -3 5 12 13 14 34
9 30 -7 62 -32 62 -49 0 -6 12 -21 27 -33 14 -13 23 -26 20 -29 -11 -11 13
-45 39 -54 24 -9 33 -30 13 -30 -5 0 -8 -4 -5 -9 3 -5 15 -7 26 -4 28 8 70 -5
70 -21 0 -16 -27 -29 -41 -20 -5 3 -23 3 -39 -1 -23 -5 -32 -14 -38 -38 -7
-27 -13 -32 -40 -32 -18 -1 -40 -8 -49 -17 -15 -16 -15 -18 3 -24 10 -4 26
-13 35 -21 14 -12 17 -11 22 9 6 22 7 22 21 3 12 -17 12 -21 0 -28 -8 -4 -14
-15 -14 -22 0 -8 -6 -15 -12 -16 -7 -1 -21 -2 -30 -3 -25 -2 -23 -20 2 -24 24
-4 49 -44 31 -50 -16 -5 -14 -22 5 -43 14 -16 14 -18 -5 -29 -13 -6 -25 -28
-32 -56 -7 -27 -20 -49 -32 -56 -50 -27 -68 -70 -45 -111 19 -35 20 -83 3 -97
-8 -7 -15 -20 -15 -30 0 -10 -17 -32 -37 -48 l-38 -30 27 -21 c27 -22 29 -61
2 -61 -25 0 -27 -23 -3 -40 17 -14 20 -22 13 -32 -8 -9 -6 -36 4 -91 13 -65
13 -83 3 -99 -11 -17 -10 -25 0 -45 11 -20 10 -35 -4 -91 -9 -37 -17 -82 -17
-100 0 -19 -6 -35 -14 -38 -8 -3 -50 1 -93 10 -43 9 -95 18 -115 20 -21 3 -46
9 -55 15 -10 5 -29 9 -43 9 -14 0 -43 5 -65 12 -64 18 -139 30 -157 24 -26 -8
-68 -77 -122 -199 -27 -60 -57 -129 -67 -152 -11 -23 -19 -45 -19 -50 0 -4
-11 -30 -24 -58 -14 -27 -41 -93 -61 -145 -20 -52 -44 -113 -54 -135 -10 -22
-21 -53 -24 -70 -3 -16 -9 -38 -12 -47 -4 -11 -3 -18 4 -18 13 0 50 79 76 160
9 30 23 64 30 75 6 11 21 45 33 75 31 82 121 279 192 418 70 138 68 137 180
108 30 -8 73 -17 95 -20 21 -4 47 -15 57 -26 11 -11 29 -20 41 -20 13 0 28 -5
34 -11 6 -6 32 -11 57 -11 25 1 48 -3 51 -8 4 -6 1 -10 -6 -10 -7 0 1 -15 19
-33 37 -39 39 -55 11 -91 -11 -14 -18 -26 -15 -26 4 0 -4 -19 -16 -41 -54 -98
-56 -104 -47 -122 6 -9 7 -22 4 -27 -3 -6 -2 -10 4 -10 5 0 12 6 15 13 3 6 4
3 2 -8 -16 -77 -17 -85 -6 -85 7 0 8 -6 2 -17 -15 -30 -22 -109 -10 -121 7 -7
5 -19 -8 -41 -17 -28 -17 -31 -1 -49 22 -24 21 -34 -3 -55 -11 -9 -20 -22 -20
-29 0 -23 18 -41 34 -35 25 10 19 -18 -8 -39 -14 -10 -23 -21 -20 -26 6 -10
64 1 92 18 12 8 22 12 22 9 0 -4 12 3 26 14 54 43 82 15 50 -48 -8 -15 -25
-68 -37 -117 -17 -70 -20 -97 -12 -126 6 -21 7 -40 4 -44 -3 -3 -6 -9 -7 -12
0 -4 -4 -15 -9 -25 -8 -19 -1 -32 18 -32 14 0 25 -37 26 -87 1 -27 -5 -41 -21
-52 -31 -22 -55 -20 -68 5 -14 25 -6 49 15 49 8 0 15 7 15 15 0 11 -8 13 -30
9 -23 -5 -31 -2 -36 11 -5 11 -1 21 9 27 33 18 19 33 -28 30 -25 -2 -45 -9
-45 -15 0 -6 -18 6 -39 27 -38 37 -39 38 -50 17 -17 -31 -58 -27 -153 13 -11
5 -18 1 -23 -13 -4 -13 -18 -23 -41 -27 -31 -6 -34 -9 -34 -40 0 -19 5 -34 10
-34 6 0 10 -9 10 -20 0 -11 -4 -20 -10 -20 -5 0 -10 9 -10 20 0 13 -7 20 -20
20 -13 0 -20 -7 -20 -20 0 -11 -4 -20 -10 -20 -5 0 -10 9 -10 20 0 11 5 20 10
20 13 0 13 47 0 55 -6 3 -18 -7 -28 -24 -9 -17 -22 -31 -29 -31 -18 0 -43 -29
-37 -44 6 -15 -24 -26 -69 -26 -15 0 -40 -8 -54 -17 -15 -10 -31 -18 -37 -18
-6 0 -12 -3 -14 -8 -5 -15 12 -62 27 -74 14 -11 13 -12 -7 -13 -34 0 -62 -18
-56 -35 4 -9 0 -15 -10 -15 -9 0 -16 4 -16 9 0 6 -12 6 -30 0 -16 -6 -30 -17
-30 -25 0 -21 40 -56 56 -50 13 5 14 -2 9 -37 -6 -39 -4 -45 19 -60 14 -9 38
-17 53 -17 15 0 23 -4 17 -8 -6 -4 -14 -24 -17 -44 -5 -31 -3 -37 14 -40 18
-3 18 -5 4 -32 -20 -37 -19 -60 1 -52 8 3 26 -1 38 -10 24 -15 68 -12 92 7 5
4 23 2 38 -6 16 -8 34 -15 40 -15 7 0 19 -11 26 -25 9 -18 22 -25 42 -25 16 0
28 -5 28 -12 0 -20 63 -58 96 -58 20 0 25 -3 15 -9 -7 -5 -11 -17 -8 -27 19
-70 19 -74 -10 -75 -34 0 -89 -59 -56 -59 29 0 78 35 101 73 18 29 22 51 23
138 1 89 4 106 20 117 11 7 19 20 19 29 0 9 15 48 33 87 75 165 211 225 362
160 87 -38 101 -39 114 -15 12 21 46 19 38 -3 -3 -6 2 -19 10 -28 8 -9 17 -35
20 -57 4 -30 10 -41 21 -39 23 4 28 -33 6 -49 -16 -11 -16 -17 -6 -46 7 -19
13 -69 13 -113 1 -71 24 -174 40 -174 3 0 6 39 6 88 0 48 4 97 8 110 6 17 4
22 -10 22 -9 0 -15 6 -12 13 2 6 11 11 19 9 12 -2 17 8 20 38 3 36 1 40 -20
40 l-23 0 20 26 c11 15 19 30 16 34 -3 4 2 24 10 44 20 48 19 66 -5 66 -23 0
-27 25 -6 37 24 14 28 48 7 75 -17 22 -19 30 -9 61 8 25 17 37 30 37 19 0 25
16 9 22 -6 2 -6 53 1 133 6 72 12 159 14 195 1 36 7 99 12 140 5 41 7 105 4
142 -4 60 -2 67 17 77 23 13 28 40 9 59 -9 9 -8 17 2 37 10 19 11 30 2 50 -10
21 -9 26 11 36 26 14 56 49 57 67 0 7 -10 17 -22 23 -19 8 -20 9 -3 6 18 -3
20 1 17 33 -3 28 2 44 22 67 14 17 26 42 26 55 0 14 9 33 20 43 17 15 20 29
18 69 l-3 51 -37 -3 c-43 -3 -44 -1 -22 33 26 40 -2 61 -38 28 -17 -15 -18
-15 -18 4 0 11 7 26 15 33 11 9 14 23 10 44 -5 26 0 37 29 70 20 21 36 42 36
46 0 4 11 11 25 14 14 4 25 13 25 22 0 14 7 25 39 61 30 32 51 84 55 135 6 75
20 123 45 154 11 15 21 35 21 45 0 11 9 28 20 39 37 37 90 128 90 155 0 14 7
28 15 31 8 4 15 13 15 21 0 18 24 43 42 43 25 0 55 29 61 60 7 31 18 35 90 30
19 -1 34 5 44 19 8 12 23 21 33 21 10 0 22 5 25 10 3 6 22 10 41 10 19 0 34 4
34 8 0 4 24 16 54 26 56 19 78 15 106 -18 16 -20 30 -20 30 -1 0 9 9 15 25 15
15 0 40 8 58 17 20 11 57 18 99 18 37 1 71 4 74 8 4 4 15 7 25 7 10 0 24 7 33
15 12 12 24 13 54 7 28 -7 46 -5 63 4 16 9 48 11 101 8 48 -3 78 -1 83 5 8 15
78 14 93 -1 14 -14 42 6 42 30 0 11 8 13 38 9 22 -4 54 0 80 8 39 14 92 12 92
-4 0 -3 10 -7 23 -8 45 -4 83 -10 122 -21 22 -6 72 -13 110 -17 39 -4 75 -11
82 -17 7 -5 17 -7 23 -3 18 11 98 -18 131 -47 40 -37 70 -53 92 -49 11 1 26
-5 35 -13 41 -39 105 -86 117 -86 8 0 16 -9 20 -20 8 -25 68 -38 91 -19 14 11
18 11 29 -4 7 -11 26 -17 48 -17 20 0 39 -5 42 -11 4 -6 14 -8 22 -5 8 3 31
-3 51 -13 20 -10 55 -21 78 -23 23 -3 56 -13 75 -21 48 -22 81 -31 100 -29 9
2 22 -4 29 -13 7 -8 26 -15 42 -15 16 0 46 -9 68 -20 22 -11 45 -20 52 -20 7
0 28 -23 46 -50 l32 -50 60 0 c36 0 60 -4 60 -11 0 -5 5 -7 10 -4 14 8 3 24
-24 35 l-21 9 22 0 c37 1 73 -17 73 -38 0 -10 9 -21 20 -24 30 -8 24 -27 -7
-27 -25 -1 -26 -2 -10 -14 9 -7 17 -18 17 -24 0 -6 11 -19 24 -29 13 -10 27
-29 31 -42 4 -15 12 -20 22 -17 21 9 43 -12 43 -39 0 -14 11 -32 28 -44 20
-16 24 -23 14 -29 -10 -7 -7 -13 12 -26 26 -16 26 -23 -2 -66 -2 -2 -6 1 -10
7 -10 16 -82 28 -82 14 0 -6 7 -11 15 -11 11 0 15 -11 15 -40 0 -29 -4 -40
-15 -40 -25 0 -20 -57 6 -65 18 -6 19 -9 6 -28 -8 -12 -23 -22 -33 -22 -11 -1
-25 -4 -32 -8 -14 -10 -16 -53 -2 -62 17 -11 11 -24 -17 -39 -26 -14 -27 -15
-5 -16 27 0 30 -20 2 -20 -25 0 -26 -28 -2 -46 15 -12 11 -13 -31 -14 -32 0
-46 -4 -41 -11 3 -6 17 -9 30 -6 20 3 24 0 24 -18 0 -19 4 -22 21 -18 14 4 28
-2 42 -19 12 -13 30 -27 40 -31 15 -6 17 -13 11 -43 -8 -44 -34 -73 -74 -81
-26 -5 -30 -10 -28 -32 2 -16 -2 -25 -9 -24 -7 2 -13 -2 -13 -8 0 -7 -10 -22
-22 -34 -13 -12 -41 -43 -63 -70 -57 -68 -65 -76 -93 -86 -40 -15 -52 -5 -52
46 0 54 -11 57 -39 10 -23 -39 -91 -79 -98 -57 -6 15 -35 16 -51 0 -6 -6 -31
-14 -54 -17 -34 -5 -45 -12 -56 -33 -8 -17 -21 -28 -33 -28 -10 0 -19 -4 -19
-9 0 -5 -14 -14 -30 -20 -17 -5 -33 -18 -37 -28 -4 -10 -14 -23 -24 -30 -9 -7
-24 -28 -33 -48 -10 -20 -28 -41 -41 -47 -15 -6 -29 -26 -36 -47 -6 -20 -19
-45 -29 -56 -10 -11 -23 -30 -29 -42 -6 -13 -16 -23 -22 -23 -16 0 -89 -63
-89 -77 0 -7 -3 -13 -8 -13 -8 0 -32 -71 -32 -95 0 -8 -9 -24 -20 -35 -17 -17
-18 -23 -8 -41 10 -16 10 -23 2 -26 -16 -5 4 -71 29 -98 10 -11 16 -28 13 -39
-3 -11 1 -47 9 -80 7 -34 14 -95 15 -136 1 -41 3 -87 5 -103 2 -15 0 -25 -4
-23 -3 2 -5 -50 -4 -117 1 -67 6 -123 11 -125 12 -4 2 -53 -15 -70 -16 -17
-17 -84 0 -100 6 -7 13 -23 14 -35 10 -109 9 -123 -8 -149 -11 -14 -19 -39
-19 -56 0 -23 6 -32 29 -42 16 -6 39 -9 50 -5 15 5 21 2 21 -9 0 -9 -4 -16 -9
-16 -16 0 0 -40 20 -51 23 -12 25 -29 3 -29 -28 0 -5 -18 32 -24 29 -6 35 -11
32 -29 -2 -14 -11 -23 -25 -25 -19 -3 -23 -10 -23 -43 0 -28 -4 -39 -15 -39
-10 0 -15 -10 -15 -34 0 -19 -2 -40 -3 -48 -2 -7 -2 -10 0 -5 3 4 14 7 26 7
22 -1 22 -1 2 -18 -11 -9 -25 -28 -31 -42 -7 -14 -28 -37 -47 -50 -21 -14 -47
-47 -63 -77 -14 -29 -29 -53 -33 -53 -4 0 -15 -13 -24 -30 -10 -16 -25 -30
-32 -30 -8 0 -27 -14 -42 -31 -15 -16 -44 -40 -65 -51 -39 -23 -49 -38 -23
-38 8 0 15 5 15 10 0 6 11 3 24 -6 14 -8 35 -14 48 -12 14 2 22 -2 21 -9 -2
-6 13 -21 32 -33 28 -17 35 -28 35 -53 1 -24 10 -40 38 -65 51 -45 99 -78 148
-102 22 -11 51 -28 65 -38 32 -25 58 -35 94 -37 51 -3 55 -4 55 -21 0 -12 6
-15 21 -11 27 7 49 -1 49 -19 0 -8 6 -17 14 -20 8 -3 20 -19 26 -35 10 -24 18
-29 47 -29 21 0 36 -6 40 -15 8 -22 -4 -30 -22 -15 -12 10 -15 9 -15 -6 0 -14
-3 -15 -12 -6 -18 18 -68 15 -68 -3 0 -12 -4 -14 -17 -6 -10 5 -24 6 -34 1
-10 -6 -33 -3 -65 9 -47 18 -48 18 -80 -3 -28 -18 -33 -27 -36 -71 -3 -27 -1
-54 3 -59 10 -11 -19 -56 -36 -56 -8 0 -31 -16 -52 -36 -32 -30 -42 -35 -68
-29 -16 4 -53 9 -82 12 -39 4 -52 9 -56 23 -4 17 -9 18 -38 8 -19 -6 -46 -17
-60 -24 -19 -10 -29 -10 -37 -2 -8 8 -15 8 -24 1 -7 -6 -30 -16 -51 -22 -44
-15 -71 -51 -37 -51 12 0 31 -5 43 -12 27 -15 167 -20 167 -7 0 6 4 8 8 5 4
-2 54 -1 111 4 91 8 108 7 133 -8 40 -23 67 -73 74 -135 5 -49 3 -54 -31 -89
-32 -34 -35 -41 -27 -70 7 -27 14 -34 38 -36 34 -4 44 -16 44 -54 0 -23 4 -28
25 -28 22 0 25 -4 25 -37 0 -37 0 -37 16 -15 13 18 19 21 30 11 8 -6 14 -24
14 -40 0 -16 5 -29 10 -29 20 0 10 -19 -19 -36 -16 -9 -27 -23 -24 -30 5 -13
-30 -37 -40 -27 -8 7 -37 -16 -37 -28 0 -5 5 -9 10 -9 17 0 52 -41 59 -69 5
-19 15 -27 34 -29 31 -4 37 -29 10 -39 -10 -4 -24 -13 -32 -21 -13 -12 -12
-15 3 -24 16 -9 15 -12 -8 -35 -22 -21 -23 -28 -13 -50 7 -16 7 -27 1 -31 -9
-7 -54 -87 -54 -97 0 -3 9 -5 20 -5 11 0 20 -7 20 -15 0 -17 -25 -20 -35 -5
-12 19 -23 10 -30 -26 -3 -20 -9 -33 -12 -30 -4 3 -14 -6 -23 -22 -13 -19 -14
-31 -7 -40 7 -9 7 -16 1 -20 -5 -4 -11 -23 -13 -42 -1 -19 -9 -42 -17 -51 -8
-8 -14 -21 -14 -27 0 -6 -12 -25 -27 -41 -49 -53 -73 -89 -73 -108 0 -26 -16
-48 -24 -34 -4 6 -12 9 -17 6 -16 -11 -10 -25 11 -25 26 0 26 -26 0 -33 -11
-3 -23 -13 -27 -24 -5 -10 -15 -18 -23 -18 -8 0 -15 -9 -15 -20 0 -12 -11 -25
-27 -33 -28 -13 -38 -32 -17 -32 5 0 7 -5 4 -10 -4 -6 -11 -8 -16 -4 -5 3 -24
-4 -43 -15 -20 -12 -50 -21 -75 -21 -22 0 -41 -3 -41 -7 0 -5 -39 -9 -88 -11
-48 -2 -113 -9 -144 -17 -41 -10 -65 -12 -84 -5 -27 11 -44 6 -44 -12 0 -6 9
-8 20 -5 11 3 20 1 20 -4 0 -5 -9 -9 -20 -9 -11 0 -20 -4 -20 -9 0 -11 25 -21
54 -21 13 0 33 -9 46 -20 13 -11 31 -20 41 -20 28 0 91 -32 120 -60 14 -15 40
-32 58 -40 18 -7 53 -32 78 -56 54 -50 53 -74 -2 -74 -19 0 -35 -4 -35 -10 0
-5 -17 -10 -37 -10 -54 0 -67 -12 -68 -63 -1 -46 -10 -61 -60 -89 -23 -13 -31
-25 -33 -54 -2 -20 1 -41 7 -47 15 -15 14 -27 -2 -27 -8 0 -23 -19 -36 -42
-12 -24 -25 -50 -30 -58 -43 -82 -43 -80 -19 -109 13 -15 41 -33 63 -40 22 -7
45 -14 51 -17 7 -3 19 2 28 11 9 9 24 14 34 11 12 -4 20 1 27 17 6 12 21 23
35 25 14 2 29 8 35 13 5 5 19 9 31 9 13 0 29 8 36 18 7 9 20 18 28 20 8 2 19
10 23 18 4 8 17 14 27 14 24 0 28 -38 5 -46 -11 -5 -12 -10 -4 -26 8 -16 13
-17 19 -8 11 18 40 4 40 -19 0 -11 -9 -22 -20 -26 -23 -7 -27 -35 -5 -35 9 0
27 -7 40 -16 37 -24 135 -5 181 36 19 16 40 30 47 30 14 0 44 32 70 72 16 26
16 28 -1 37 -14 9 -14 12 -3 20 10 6 5 12 -18 22 -37 17 -38 25 -8 50 12 10
16 18 10 19 -19 0 -15 28 5 34 45 15 156 14 187 -1 21 -10 40 -13 52 -8 17 8
17 8 1 12 -10 3 -18 8 -18 13 0 5 -3 17 -7 27 -3 10 -3 15 2 11 4 -4 14 0 21
10 7 9 18 17 26 17 7 0 14 10 16 22 4 28 22 31 22 4 0 -24 31 -35 75 -27 28 6
35 3 40 -13 3 -11 16 -22 28 -24 18 -3 17 -5 -6 -6 -23 -1 -28 -5 -25 -23 2
-18 11 -24 38 -28 27 -4 36 -10 38 -27 6 -41 32 -27 32 17 0 22 5 40 10 40 6
0 10 -10 10 -23 0 -18 6 -23 32 -25 44 -4 49 -12 7 -12 -33 0 -36 -3 -47 -47
-10 -37 -10 -48 0 -55 28 -17 79 4 71 30 -3 6 0 12 6 12 18 0 13 -48 -6 -62
-30 -22 -25 -35 15 -34 35 1 37 -1 46 -41 7 -35 13 -43 37 -48 19 -4 34 -17
44 -39 12 -24 27 -37 58 -47 23 -8 46 -14 50 -14 4 0 19 -10 32 -23 13 -13 30
-22 37 -21 29 3 35 -2 30 -26 -4 -21 -1 -25 21 -25 14 0 32 -7 41 -15 8 -8 19
-15 25 -15 6 0 11 -4 11 -8 0 -12 55 -42 77 -42 10 0 26 -14 35 -31 12 -20 37
-38 75 -55 32 -14 60 -29 63 -34 3 -4 20 -15 38 -24 35 -18 41 -40 15 -54 -9
-6 -14 -16 -10 -25 3 -8 -3 -23 -13 -32 -11 -10 -17 -21 -15 -25 5 -9 -29 -56
-60 -83 -11 -9 -40 -37 -65 -60 -60 -57 -196 -167 -207 -167 -5 0 -29 -17 -54
-38 -25 -20 -71 -53 -103 -72 -31 -19 -76 -48 -99 -65 -82 -59 -267 -158 -295
-158 -8 0 -25 -11 -38 -24 -13 -12 -30 -23 -39 -23 -23 0 -14 34 10 39 23 4
36 21 28 34 -3 5 -9 4 -13 -3 -5 -8 -11 3 -15 29 -8 46 -14 50 -33 21 -7 -11
-19 -20 -26 -20 -8 0 -28 -17 -45 -37 -21 -25 -39 -37 -60 -39 -16 -1 -35 -5
-42 -9 -7 -5 -10 -4 -5 3 3 6 2 13 -4 17 -5 3 -10 -3 -10 -14 0 -22 -44 -61
-69 -61 -9 0 -22 -13 -29 -29 -7 -16 -28 -40 -47 -52 -20 -14 -37 -36 -41 -51
-3 -15 -18 -37 -34 -48 -38 -27 -173 -84 -295 -125 -157 -52 -468 -128 -480
-117 -3 3 -5 30 -5 59 0 30 -5 64 -12 76 -6 12 -11 61 -11 109 1 49 -3 91 -8
94 -5 3 -9 24 -9 48 0 23 -4 46 -9 52 -17 19 -20 60 -5 88 8 16 13 30 12 31
-45 25 -58 39 -58 60 0 61 -61 114 -117 101 -15 -3 -35 -8 -43 -10 -10 -2 -16
-18 -18 -47 -2 -24 -7 -48 -11 -54 -5 -5 -5 -19 0 -30 4 -11 8 -39 8 -62 1
-23 6 -45 11 -48 6 -3 10 -14 10 -23 0 -9 7 -29 14 -44 16 -30 21 -234 7 -253
-5 -5 -11 -30 -15 -55 -9 -57 -9 -55 -3 -113 5 -42 3 -49 -17 -63 -33 -21
-182 -30 -229 -15 -26 9 -78 53 -165 139 -126 125 -168 177 -215 263 -13 24
-49 88 -80 142 -42 72 -71 140 -106 250 -84 264 -102 353 -107 522 -5 166 -18
286 -39 344 -25 71 -36 211 -25 312 6 52 14 137 20 189 11 115 25 189 46 254
16 46 16 51 -4 100 -11 28 -25 83 -31 123 -6 39 -15 83 -21 98 -5 14 -10 41
-10 59 0 53 -17 60 -101 41 -65 -14 -116 -40 -144 -70 -5 -7 -37 -29 -70 -50
-89 -57 -154 -118 -218 -205 -62 -85 -192 -206 -262 -245 -71 -40 -123 -57
-244 -79 -110 -21 -143 -20 -174 4 -14 11 -34 20 -44 20 -11 0 -53 9 -94 20
-41 11 -93 20 -115 20 -23 0 -129 -23 -235 -50 -193 -50 -247 -63 -409 -95
-47 -10 -104 -21 -128 -26 -24 -5 -47 -11 -51 -13 -17 -11 -312 -68 -417 -81
-61 -8 -133 -21 -160 -30 -132 -42 -181 -60 -204 -74 -14 -9 -47 -27 -75 -40
-27 -13 -58 -31 -69 -40 -21 -18 -56 -93 -56 -121 0 -9 -7 -23 -15 -30 -21
-17 -135 -15 -147 2 -6 8 -7 1381 -4 3391 4 2747 7 3381 18 3396 24 33 102
123 158 180 111 113 196 173 279 197 31 9 70 22 86 29 39 17 132 28 220 26 54
-2 67 0 58 10 -8 8 -57 10 -180 7 -142 -5 -177 -9 -224 -28 -78 -30 -210 -139
-315 -260 -59 -68 -90 -96 -95 -88 -9 14 -6 1865 3 1873 3 3 72 8 153 11 81 3
151 5 154 6 22 2 33 -6 48 -39 14 -27 25 -37 47 -40 23 -3 27 -1 22 13 -5 13
-2 15 19 10 29 -7 69 10 59 26 -4 7 4 8 24 3 35 -7 112 13 119 31 9 25 -30 54
-72 54 -37 0 -65 13 -65 31 0 12 63 4 68 -9 5 -17 49 -15 56 3 6 17 42 20 51
5 10 -17 64 -11 84 9 19 19 20 19 36 -6 16 -23 20 -24 78 -19 34 3 74 6 90 6
18 1 27 6 27 17 0 13 3 13 15 3 9 -7 14 -22 13 -34 -3 -18 4 -22 52 -28 77 -9
90 0 90 67 0 30 -4 55 -10 55 -17 0 -11 58 8 69 10 6 12 11 4 11 -7 0 -10 5
-7 10 9 15 25 12 25 -5z m-219 -5 l56 0 1 -41 c2 -49 -14 -87 -31 -70 -6 6
-30 11 -53 11 -23 0 -47 6 -53 14 -7 8 -33 16 -59 19 -132 13 -206 37 -184 59
10 10 123 16 202 12 36 -2 90 -4 121 -4z m-631 -37 c47 -9 102 -18 123 -20 20
-3 40 -9 43 -14 3 -5 46 -9 95 -9 68 0 90 -3 87 -12 -6 -18 -90 -28 -178 -22
-41 2 -146 6 -232 9 -86 2 -165 8 -175 13 -10 6 -29 12 -43 13 -14 2 -28 13
-32 24 -6 19 -6 19 -7 -2 -2 -37 -19 -35 -19 1 0 24 5 36 17 39 34 8 240 -5
321 -20z m9627 -110 c-2 -21 -4 -4 -4 37 0 41 2 58 4 38 2 -21 2 -55 0 -75z
m-297 54 c0 -26 -17 -47 -37 -47 -10 0 -11 8 -7 28 11 43 44 58 44 19z m-1039
-32 c33 -18 30 -35 -6 -35 -21 0 -35 17 -35 41 0 12 6 11 41 -6z m-6373 -33
c42 3 47 1 50 -19 3 -18 -4 -24 -35 -33 -21 -6 -67 -10 -103 -8 -65 3 -65 3
-68 34 -3 27 1 33 25 42 20 7 36 5 56 -5 16 -8 48 -13 75 -11z m7712 -180 c0
-64 -4 -89 -12 -90 -7 -1 -25 -4 -40 -8 -24 -5 -28 -3 -28 15 0 11 11 28 25
37 14 9 25 23 25 30 0 8 5 14 10 14 16 0 12 30 -5 36 -12 5 -12 9 2 30 8 13
17 24 19 24 2 0 4 -40 4 -88z m-8045 47 c-4 -5 -13 -9 -22 -9 -13 0 -13 3 -3
15 13 15 35 11 25 -6z m7999 -45 c3 -8 2 -12 -4 -9 -6 3 -10 10 -10 16 0 14 7
11 14 -7z m-54 -14 c0 -5 -4 -10 -10 -10 -5 0 -10 5 -10 10 0 6 5 10 10 10 6
0 10 -4 10 -10z m-30 -45 c0 -18 -5 -25 -20 -25 -25 0 -26 25 -2 39 23 14 22
14 22 -14z m-1071 -25 c9 -26 7 -34 -9 -50 -11 -11 -26 -20 -34 -20 -20 0 -31
20 -17 29 8 6 9 15 2 33 -11 30 -6 38 25 38 16 0 25 -9 33 -30z m1198 -142
c-2 -13 -4 -3 -4 22 0 25 2 35 4 23 2 -13 2 -33 0 -45z m-1171 -7 c-3 -20 -6
-43 -6 -52 0 -9 -8 -26 -19 -37 l-18 -22 -28 26 c-21 19 -25 28 -15 34 8 5 10
17 6 34 -5 22 -1 29 25 45 44 27 63 17 55 -28z m-3432 -502 c-6 -11 -24 -2
-24 11 0 5 7 7 15 4 8 -4 12 -10 9 -15z m-2817 -456 c-3 -10 -5 -2 -5 17 0 19
2 27 5 18 2 -10 2 -26 0 -35z m73 -267 c-12 -12 -30 2 -30 23 0 29 13 33 26 9
7 -13 9 -27 4 -32z m-45 -95 c-19 -38 -39 -36 -43 3 -4 35 26 62 46 42 12 -11
11 -19 -3 -45z m-718 -47 c-3 -3 -12 -4 -19 -1 -8 3 -5 6 6 6 11 1 17 -2 13
-5z m613 -123 c0 -5 -7 -11 -15 -15 -15 -5 -20 5 -8 17 9 10 23 9 23 -2z
m6668 -103 c16 -47 18 -59 7 -66 -12 -6 -85 -134 -85 -147 0 -3 11 -5 25 -5
17 0 25 6 25 17 0 20 48 103 60 103 5 0 19 -14 31 -31 17 -25 27 -30 50 -27
17 3 30 -1 33 -9 4 -8 -3 -13 -17 -14 -17 -1 -14 -3 11 -10 55 -16 42 -30 -41
-44 -20 -3 -46 -15 -56 -27 -18 -18 -48 -17 -36 1 6 10 -44 21 -94 21 -20 0
-43 6 -49 12 -8 8 -46 13 -110 13 -53 0 -102 4 -109 8 -7 4 -25 1 -40 -6 -16
-8 -71 -17 -126 -19 l-98 -5 -26 40 c-22 35 -24 46 -18 98 8 64 14 74 45 64
17 -5 20 -15 20 -63 0 -31 4 -63 9 -71 10 -15 51 -6 51 11 0 15 -32 82 -43 89
-15 11 0 39 20 39 25 0 39 -11 47 -37 4 -13 12 -23 17 -23 5 0 9 10 9 23 0 37
14 48 61 47 110 -2 147 5 173 33 30 32 71 36 86 7 7 -13 21 -20 38 -20 l27 1
-23 19 c-35 29 -18 42 48 38 l59 -3 19 -57z m-6530 0 c-3 -7 -13 -13 -23 -13
-10 0 -20 6 -22 13 -3 7 5 12 22 12 17 0 25 -5 23 -12z m-228 -96 c0 -4 -4
-12 -10 -18 -5 -5 -16 -34 -24 -64 -16 -60 -17 -61 -21 -10 -2 22 4 47 17 68
18 30 38 42 38 24z m6110 -118 c0 -20 -30 -30 -41 -13 -6 9 -3 18 8 26 18 14
33 8 33 -13z m-6047 -27 c-6 -30 -26 -32 -31 -3 -4 20 18 50 29 39 4 -4 5 -21
2 -36z m4027 -13 c0 -21 -40 -53 -66 -54 -22 0 -40 35 -23 46 5 3 9 -2 9 -11
0 -13 6 -12 33 9 37 30 47 32 47 10z m-3920 -80 c0 -2 -9 -4 -21 -4 -11 0 -18
4 -14 10 5 8 35 3 35 -6z m-230 -51 c0 -11 -52 -83 -60 -83 -4 0 -10 15 -12
32 -4 23 0 37 11 45 17 13 61 18 61 6z m-100 -57 c0 -8 -4 -18 -10 -21 -5 -3
-10 -15 -10 -26 0 -23 -27 -36 -42 -21 -11 11 -38 -7 -38 -27 0 -13 -50 -52
-60 -46 -16 10 15 67 50 93 38 29 90 60 103 61 4 1 7 -5 7 -13z m-202 -39 c2
-10 -3 -17 -11 -17 -16 0 -30 24 -19 34 10 10 27 1 30 -17z m272 -47 c0 -5 -5
-10 -11 -10 -5 0 -7 5 -4 10 3 6 8 10 11 10 2 0 4 -4 4 -10z m-60 -190 c0 -5
-9 -14 -20 -20 -22 -12 -27 -1 -8 18 14 14 28 16 28 2z m6208 -177 c12 -23 -3
-63 -23 -63 -10 0 -15 10 -15 33 0 48 21 64 38 30z m-1874 -6 c3 3 19 0 36 -7
24 -10 33 -10 45 0 13 11 20 9 40 -10 14 -13 25 -20 25 -15 0 5 11 -2 25 -15
19 -18 22 -26 13 -32 -8 -6 0 -7 19 -3 28 6 33 3 37 -17 6 -33 3 -68 -6 -68
-4 0 -8 8 -8 19 0 19 -25 31 -47 24 -7 -3 -13 -11 -13 -18 0 -31 -63 -28 -87
4 -11 14 -12 14 -13 -2 0 -17 -6 -18 -74 -12 -116 11 -141 18 -143 40 -2 11 6
31 16 45 16 21 27 24 67 22 39 -1 45 0 32 11 -8 6 -18 19 -21 29 -5 14 -1 15
23 8 16 -4 31 -6 34 -3z m-4334 -117 c0 -5 -2 -10 -4 -10 -2 0 -12 -3 -20 -6
-12 -5 -15 -2 -10 10 7 17 34 22 34 6z m-525 -30 c3 -5 -3 -10 -14 -10 -12 0
-21 5 -21 10 0 6 6 10 14 10 8 0 18 -4 21 -10z m4670 -37 c14 -21 13 -23 -8
-34 -12 -7 -40 -13 -62 -14 -22 -1 -76 -11 -120 -23 -73 -20 -185 -30 -185
-17 0 4 16 22 35 42 34 35 39 37 117 41 45 3 96 11 113 18 45 20 93 14 110
-13z m-4625 -38 c0 -8 -2 -15 -4 -15 -2 0 -6 7 -10 15 -3 8 -1 15 4 15 6 0 10
-7 10 -15z m4770 -15 c0 -5 -12 -10 -27 -9 -25 0 -26 1 -8 9 27 12 35 12 35 0z
m-4640 -10 c0 -5 -4 -10 -10 -10 -5 0 -10 5 -10 10 0 6 5 10 10 10 6 0 10 -4
10 -10z m330 -2 c0 -7 -4 -19 -9 -27 -11 -17 -25 3 -17 24 7 18 26 20 26 3z
m3920 -145 c0 -9 -5 -31 -12 -49 -10 -27 -9 -36 3 -51 21 -25 40 -88 33 -106
-3 -9 -21 -21 -39 -27 -26 -9 -32 -15 -28 -31 7 -25 35 -40 54 -28 23 14 59
11 59 -6 0 -21 18 -19 23 3 4 14 5 13 6 -4 1 -13 14 -28 39 -40 20 -10 40 -23
43 -27 3 -4 31 -9 63 -11 75 -4 93 -21 37 -36 -34 -9 -45 -8 -63 5 -24 16 -42
20 -34 6 6 -9 -36 -31 -59 -31 -9 0 -14 8 -12 23 2 21 -1 22 -83 22 -83 0 -85
1 -83 23 2 13 -1 21 -6 17 -5 -3 -26 6 -47 20 -39 27 -89 33 -97 13 -4 -10 -8
-9 -16 2 -16 23 -22 6 -8 -23 6 -15 18 -27 25 -27 6 0 21 -9 32 -20 11 -11 24
-20 30 -20 5 0 14 -9 20 -20 6 -11 22 -23 35 -26 14 -3 25 -12 25 -19 0 -12
28 -21 92 -29 36 -5 48 -14 41 -31 -3 -9 1 -15 11 -15 9 0 16 -7 16 -15 0 -11
11 -15 40 -15 22 0 40 -5 40 -11 0 -6 6 -9 13 -6 6 2 23 0 37 -6 64 -24 156
-38 280 -43 195 -7 257 -12 330 -27 45 -9 59 -15 47 -20 -27 -10 -18 -49 15
-65 15 -7 30 -21 33 -32 4 -11 16 -20 28 -21 21 -1 21 -1 2 -9 -11 -4 -30 -10
-42 -15 -31 -10 -29 -18 7 -33 19 -9 30 -21 30 -33 0 -11 5 -30 11 -42 9 -16
9 -22 0 -25 -14 -5 -15 -82 -1 -82 6 0 10 -19 10 -42 0 -33 -6 -49 -25 -67
-14 -13 -25 -29 -25 -37 0 -8 -7 -14 -16 -14 -16 0 -16 -2 3 -62 3 -10 0 -18
-6 -18 -6 0 -11 7 -11 15 0 8 -7 15 -15 15 -22 0 -18 -18 16 -72 24 -37 29
-52 20 -61 -17 -17 -13 -52 10 -81 l21 -26 -25 -30 c-14 -16 -28 -43 -32 -60
-4 -20 -16 -34 -32 -41 -22 -8 -24 -13 -18 -53 6 -38 4 -46 -18 -69 -14 -13
-23 -27 -20 -30 3 -4 2 -18 -1 -32 -5 -20 -11 -25 -25 -20 -21 6 -32 -13 -24
-43 3 -15 -3 -25 -26 -38 -17 -10 -31 -26 -31 -36 0 -10 -7 -34 -15 -54 -12
-30 -17 -34 -41 -28 -17 4 -29 2 -35 -7 -13 -21 -11 -27 12 -34 16 -5 18 -10
8 -21 -16 -20 -26 -18 -34 9 -7 21 -7 21 -12 2 -18 -71 -19 -71 -74 -16 -29
28 -56 51 -60 51 -5 0 -9 7 -9 15 0 8 -11 22 -25 31 -14 9 -25 22 -25 29 0 8
-11 22 -25 33 -14 11 -25 25 -25 31 0 6 -3 11 -8 11 -4 0 -18 17 -30 38 -13
20 -44 51 -68 67 -24 17 -44 38 -44 47 0 9 -5 20 -11 24 -6 3 -17 22 -25 40
-9 23 -21 34 -34 34 -22 0 -27 15 -7 23 8 4 9 8 1 14 -53 40 -67 56 -69 77 -2
14 -7 31 -12 38 -4 7 -8 27 -8 43 0 26 -3 30 -25 27 -45 -5 -56 6 -31 32 l22
23 -25 5 c-18 4 -26 1 -26 -9 0 -8 -5 -11 -10 -8 -6 4 -8 11 -4 16 9 15 -16
79 -31 79 -19 0 -29 38 -15 55 10 11 16 72 23 230 1 22 -2 46 -7 53 -6 8 -5
17 0 22 20 20 -5 180 -40 270 -19 47 -37 95 -41 107 -3 11 -12 24 -20 27 -8 3
-15 11 -15 19 0 7 -11 24 -25 37 -15 14 -23 30 -20 41 3 9 -4 33 -15 53 -12
19 -19 39 -16 45 3 5 -1 14 -9 21 -8 7 -15 23 -15 36 0 12 -4 26 -10 29 -19
12 -10 25 14 19 18 -4 27 0 36 16 10 19 17 21 53 14 23 -3 51 -12 62 -20 11
-7 40 -16 65 -19 l45 -6 -35 20 c-19 10 -48 33 -63 49 -28 29 -28 32 -16 69
14 39 51 83 72 83 7 1 23 7 37 15 34 19 60 19 60 -2z m325 -59 c0 -12 -8 -20
-22 -22 -17 -3 -23 2 -23 16 0 20 16 33 35 28 6 -2 10 -11 10 -22z m-104 -27
c-1 -12 -15 -9 -19 4 -3 6 1 10 8 8 6 -3 11 -8 11 -12z m389 -57 c25 -25 26
-50 2 -50 -10 0 -29 -19 -44 -45 -17 -28 -37 -47 -53 -51 -43 -11 -51 9 -21
52 14 21 26 46 26 54 0 25 30 60 51 60 10 0 28 -9 39 -20z m-540 -270 c0 -5
-4 -10 -9 -10 -6 0 -13 5 -16 10 -3 6 1 10 9 10 9 0 16 -4 16 -10z m-610 -855
c0 -8 -6 -15 -14 -15 -7 0 -16 -9 -19 -21 -7 -25 -27 -16 -27 11 0 19 24 39
48 40 6 0 12 -7 12 -15z m-20 -131 c0 -24 -14 -32 -25 -14 -9 14 4 52 16 45 5
-4 9 -17 9 -31z m580 -54 c0 -5 -4 -10 -9 -10 -6 0 -13 5 -16 10 -3 6 1 10 9
10 9 0 16 -4 16 -10z m830 -320 c-19 -13 -30 -13 -30 0 0 6 10 10 23 10 18 0
19 -2 7 -10z m-225 -460 c3 -5 -1 -10 -10 -10 -9 0 -13 5 -10 10 3 6 8 10 10
10 2 0 7 -4 10 -10z m14 -207 c-1 -27 2 -56 6 -65 3 -9 2 -25 -4 -37 -6 -11
-11 -33 -11 -50 0 -45 -17 -81 -39 -81 -10 0 -22 -7 -25 -16 -4 -10 -13 -13
-26 -9 -13 4 -22 1 -26 -9 -4 -11 -19 -16 -50 -16 -43 0 -44 1 -33 23 13 24
60 86 96 126 20 22 70 156 65 174 -1 4 10 7 24 7 24 0 25 -3 23 -47z m3201
-563 c0 -199 -4 -310 -10 -310 -5 0 -41 -29 -79 -64 -39 -35 -83 -66 -98 -69
-15 -3 -100 -20 -188 -36 -185 -35 -284 -55 -395 -80 -25 -5 -97 -19 -160 -31
-63 -11 -137 -27 -165 -35 -66 -19 -126 -29 -445 -75 -80 -12 -253 -41 -385
-65 -132 -23 -256 -45 -275 -48 -19 -3 -84 -15 -145 -27 -60 -11 -129 -23
-153 -25 -23 -3 -56 -12 -72 -20 -40 -21 -50 -19 -50 10 0 18 -5 25 -19 25
-11 0 -23 9 -26 20 -6 18 -15 20 -120 20 l-114 0 -10 38 c-32 121 -42 489 -16
575 20 66 59 115 104 127 20 5 68 10 106 10 39 0 99 5 135 10 36 5 151 17 255
25 228 19 439 40 595 60 63 8 140 17 170 21 281 30 471 54 510 64 19 5 82 16
140 25 58 8 132 20 165 25 33 6 121 19 195 30 204 31 314 52 325 61 5 5 20 9
35 10 14 0 57 8 95 19 39 10 76 19 83 19 9 1 12 -67 12 -309z m-3336 245 c3
-9 0 -15 -9 -15 -16 0 -27 14 -18 24 10 10 21 7 27 -9z m677 -1207 c0 -2 4
-39 9 -83 16 -140 28 -189 51 -207 12 -10 29 -18 38 -18 9 0 32 -15 49 -33 26
-27 35 -47 43 -98 18 -105 52 -253 61 -263 14 -17 9 -26 -16 -26 -40 0 -78 19
-120 58 -110 105 -140 127 -194 143 -28 8 -53 24 -68 44 -32 43 -54 142 -54
252 0 83 2 92 20 98 11 3 20 13 20 21 0 8 9 14 20 14 13 0 20 7 20 19 0 11 8
22 19 26 10 3 31 17 47 30 24 21 52 32 55 23z m115 -9 c10 -17 -23 -46 -37
-32 -7 7 -9 19 -6 27 7 18 33 21 43 5z m2543 -101 c0 -78 -3 -106 -9 -90 -11
26 -23 28 -45 5 -14 -14 -16 -36 -13 -159 3 -145 12 -180 38 -149 7 8 16 15
21 15 5 0 9 -247 9 -563 0 -483 -2 -564 -14 -564 -12 0 -15 19 -14 94 0 52 -3
97 -6 100 -3 4 -6 -26 -6 -65 0 -78 5 -72 -64 -76 -31 -2 -30 -24 1 -28 19 -2
29 -9 31 -23 2 -17 -8 -23 -60 -39 -35 -10 -78 -25 -96 -33 -38 -16 -56 -9
-48 19 4 18 1 20 -29 15 -45 -7 -103 9 -138 39 -16 13 -33 24 -39 24 -5 0 -21
9 -35 19 -13 11 -31 17 -39 14 -18 -6 -74 16 -74 29 0 6 -7 8 -15 4 -16 -6
-194 34 -267 60 -22 8 -57 14 -78 14 -32 0 -44 7 -83 50 -25 28 -52 50 -60 50
-7 0 -25 12 -39 28 -30 31 -66 62 -108 92 -24 17 -29 26 -24 46 5 21 3 24 -22
24 -56 0 -101 21 -155 70 -55 51 -125 96 -189 120 -19 8 -48 24 -63 37 -16 13
-36 23 -46 23 -9 0 -41 16 -71 35 -30 19 -63 35 -74 35 -10 0 -40 11 -68 25
-33 17 -66 25 -99 25 -46 0 -49 1 -51 28 0 15 0 39 1 55 1 15 -3 27 -9 27 -7
0 -10 17 -8 48 3 45 4 47 33 46 70 -3 126 -14 141 -28 8 -9 30 -16 49 -16 31
0 33 2 39 43 9 59 9 78 1 197 -7 92 -6 107 9 119 9 8 78 22 159 32 248 32 288
38 457 64 91 14 242 37 335 51 94 14 249 39 345 56 106 19 238 34 335 39 129
7 234 19 253 28 1 0 2 -50 1 -111z m-3799 -1052 c0 -3 -4 -8 -10 -11 -5 -3
-10 -1 -10 4 0 6 5 11 10 11 6 0 10 -2 10 -4z m-1135 -136 c-21 -23 -45 -26
-45 -6 0 14 17 22 49 25 11 1 10 -4 -4 -19z m4935 -537 l0 -126 -62 59 c-96
92 -128 125 -128 133 0 13 132 58 178 60 9 1 12 -31 12 -126z m-7170 -3429
c10 -18 11 -30 4 -42 -18 -27 -117 -90 -154 -97 -47 -9 -159 -85 -212 -144
-24 -27 -58 -75 -77 -107 -19 -33 -42 -71 -52 -86 -11 -15 -19 -33 -19 -41 0
-7 -7 -22 -15 -33 -8 -10 -15 -31 -15 -46 0 -20 -4 -26 -15 -22 -8 4 -12 11
-8 16 9 15 9 123 0 125 -13 4 -35 28 -31 34 2 3 17 4 35 1 24 -4 30 -1 27 9
-3 8 -13 13 -22 13 -26 -3 -18 12 17 30 17 8 26 16 19 16 -19 0 -4 22 76 116
104 123 196 202 286 245 96 47 137 50 156 13z m-667 -619 c-3 -9 -8 -14 -10
-11 -3 3 -2 9 2 15 9 16 15 13 8 -4z m-46 -17 c-3 -8 -6 -5 -6 6 -1 11 2 17 5
13 3 -3 4 -12 1 -19z m-937 -1102 c0 -3 -4 -8 -10 -11 -5 -3 -10 -1 -10 4 0 6
5 11 10 11 6 0 10 -2 10 -4z"/>
<path d="M13100 17270 c0 -5 5 -10 10 -10 6 0 10 5 10 10 0 6 -4 10 -10 10 -5
0 -10 -4 -10 -10z"/>
<path d="M6560 16995 c0 -8 4 -15 10 -15 5 0 7 7 4 15 -4 8 -8 15 -10 15 -2 0
-4 -7 -4 -15z"/>
<path d="M6675 16940 c3 -5 10 -10 16 -10 5 0 9 5 9 10 0 6 -7 10 -16 10 -8 0
-12 -4 -9 -10z"/>
<path d="M12800 17129 c0 -5 5 -7 10 -4 6 3 10 8 10 11 0 2 -4 4 -10 4 -5 0
-10 -5 -10 -11z"/>
<path d="M13130 16920 c-9 -6 -10 -10 -3 -10 6 0 15 5 18 10 8 12 4 12 -15 0z"/>
<path d="M12827 16298 c-3 -23 -4 -46 -1 -50 7 -12 71 -21 99 -14 37 9 30 34
-15 52 -22 9 -45 25 -51 35 -16 30 -26 22 -32 -23z"/>
<path d="M12480 16258 c0 -5 8 -8 18 -8 17 -1 62 -32 62 -44 0 -4 -18 -3 -40
0 -33 5 -40 4 -40 -10 0 -9 7 -16 15 -16 9 0 15 -9 15 -24 0 -34 11 -38 57
-23 28 9 38 18 38 34 0 12 4 25 8 29 14 15 6 41 -15 52 -27 13 -118 21 -118
10z"/>
<path d="M12860 16150 c-12 -7 -12 -12 -3 -21 9 -9 16 -9 28 1 29 24 9 42 -25
20z"/>
<path d="M12400 16094 c-6 -14 -10 -27 -10 -29 0 -4 71 12 77 19 8 8 -24 36
-42 36 -8 0 -20 -12 -25 -26z"/>
<path d="M12505 16071 c-7 -12 12 -24 25 -16 11 7 4 25 -10 25 -5 0 -11 -4
-15 -9z"/>
<path d="M13045 16060 c3 -5 8 -10 11 -10 2 0 4 5 4 10 0 6 -5 10 -11 10 -5 0
-7 -4 -4 -10z"/>
<path d="M12465 16031 c-3 -5 -1 -12 5 -16 5 -3 10 1 10 9 0 18 -6 21 -15 7z"/>
<path d="M12547 16018 c-17 -18 -18 -21 -2 -38 9 -10 14 -24 10 -29 -3 -6 -3
-11 2 -11 4 0 16 16 25 35 28 56 4 86 -35 43z"/>
<path d="M12610 16010 c0 -5 5 -10 10 -10 6 0 10 5 10 10 0 6 -4 10 -10 10 -5
0 -10 -4 -10 -10z"/>
<path d="M12640 15985 c0 -20 40 -42 79 -44 49 -2 111 -25 111 -40 0 -5 -11
-18 -25 -29 -24 -19 -32 -53 -19 -86 11 -29 60 7 83 61 9 23 21 33 39 35 43 5
34 33 -10 33 -29 0 -41 6 -54 25 -35 52 -66 61 -131 38 -27 -10 -38 -10 -53 0
-11 7 -20 10 -20 7z"/>
<path d="M12561 15894 c0 -11 3 -14 6 -6 3 7 2 16 -1 19 -3 4 -6 -2 -5 -13z"/>
<path d="M12716 15635 c4 -8 8 -15 10 -15 2 0 4 7 4 15 0 8 -4 15 -10 15 -5 0
-7 -7 -4 -15z"/>
<path d="M12881 15558 c12 -22 23 -23 39 -3 14 17 14 17 -22 19 -23 2 -25 -1
-17 -16z"/>
<path d="M13311 15666 c-14 -16 -4 -46 15 -46 8 0 14 10 14 24 0 30 -14 41
-29 22z"/>
<path d="M13260 15591 c0 -6 5 -13 10 -16 6 -3 10 1 10 9 0 9 -4 16 -10 16 -5
0 -10 -4 -10 -9z"/>
<path d="M13322 15525 c-12 -19 -27 -35 -33 -35 -22 0 20 -29 47 -32 21 -2 31
3 43 23 13 23 13 28 -5 52 -10 15 -21 26 -24 27 -3 0 -15 -16 -28 -35z"/>
<path d="M13040 15289 c0 -6 -6 -9 -14 -6 -8 3 -19 0 -25 -7 -22 -26 20 -37
45 -12 16 17 19 36 4 36 -5 0 -10 -5 -10 -11z"/>
<path d="M13067 15254 c-13 -13 -7 -44 7 -44 8 0 17 4 20 9 7 11 -18 44 -27
35z"/>
<path d="M13200 15234 c0 -8 6 -14 14 -14 8 0 18 -9 21 -20 3 -11 13 -20 20
-20 11 0 11 6 -3 29 -18 32 -52 48 -52 25z"/>
<path d="M12985 15200 c-18 -20 -18 -21 3 -41 12 -11 22 -32 22 -47 1 -15 10
-38 21 -52 20 -24 21 -24 35 -5 15 21 10 54 -12 71 -8 6 -14 16 -14 23 0 6 -7
11 -16 11 -12 0 -15 7 -12 30 5 35 -2 38 -27 10z"/>
<path d="M12766 15163 c-13 -14 -5 -33 14 -33 11 0 20 6 20 14 0 15 -24 28
-34 19z"/>
<path d="M13200 15110 c0 -5 5 -10 11 -10 5 0 7 5 4 10 -3 6 -8 10 -11 10 -2
0 -4 -4 -4 -10z"/>
<path d="M12877 15066 c-4 -10 -1 -13 8 -9 8 3 12 9 9 14 -7 12 -11 11 -17 -5z"/>
<path d="M13250 15061 c0 -5 7 -14 15 -21 8 -7 15 -23 15 -36 0 -18 6 -24 21
-24 18 0 20 5 17 41 -3 39 -5 42 -35 45 -18 2 -33 0 -33 -5z"/>
<path d="M13175 15020 c3 -5 10 -10 16 -10 5 0 9 5 9 10 0 6 -7 10 -16 10 -8
0 -12 -4 -9 -10z"/>
<path d="M12730 14991 c0 -10 30 -24 37 -17 3 3 2 9 -2 15 -8 13 -35 15 -35 2z"/>
<path d="M13200 14945 c0 -44 3 -53 15 -49 8 4 15 10 15 14 0 4 9 10 20 13 12
3 20 14 20 25 0 38 -11 52 -41 52 -28 0 -29 -1 -29 -55z"/>
<path d="M12880 14972 c0 -25 25 -46 46 -38 15 6 15 9 1 29 -19 29 -47 35 -47
9z"/>
<path d="M13006 14954 c-22 -22 -20 -34 7 -34 30 0 36 6 30 31 -6 23 -16 24
-37 3z"/>
<path d="M12867 14893 c-12 -11 -7 -44 8 -59 8 -9 15 -11 15 -6 0 5 11 13 25
16 31 8 32 20 3 40 -24 17 -41 20 -51 9z"/>
<path d="M13320 14896 c0 -2 9 -6 20 -9 11 -3 20 -1 20 4 0 5 -9 9 -20 9 -11
0 -20 -2 -20 -4z"/>
<path d="M13470 14872 c0 -34 14 -43 24 -15 4 9 0 23 -9 32 -13 14 -15 12 -15
-17z"/>
<path d="M13340 14860 c-12 -8 -10 -10 8 -10 13 0 20 4 17 10 -7 12 -6 12 -25
0z"/>
<path d="M13448 14823 c7 -3 16 -2 19 1 4 3 -2 6 -13 5 -11 0 -14 -3 -6 -6z"/>
<path d="M13200 14803 c0 -9 8 -25 17 -35 15 -17 15 -20 -13 -51 -16 -17 -32
-33 -36 -35 -5 -2 -8 -12 -8 -22 0 -24 -17 -34 -52 -32 -28 2 -38 -11 -17 -24
6 -3 9 -17 6 -30 -3 -18 0 -24 14 -24 10 0 22 6 26 13 4 6 22 20 39 29 28 16
33 16 44 3 17 -21 37 -19 45 5 4 11 11 18 16 15 5 -4 9 0 9 7 0 7 -9 19 -21
26 -19 12 -20 15 -5 37 19 29 21 106 4 123 -19 19 -68 15 -68 -5z"/>
<path d="M13378 14813 c-28 -7 -31 -35 -6 -55 25 -19 53 -24 43 -7 -4 5 1 19
11 30 16 17 16 22 4 29 -16 10 -24 11 -52 3z"/>
<path d="M12920 14698 c0 -49 5 -47 14 5 4 23 3 37 -4 37 -5 0 -10 -19 -10
-42z"/>
<path d="M13518 14733 c6 -2 18 -2 25 0 6 3 1 5 -13 5 -14 0 -19 -2 -12 -5z"/>
<path d="M13475 14614 c-54 -17 -81 -36 -71 -52 8 -13 84 -10 94 3 4 6 24 19
45 30 20 11 37 23 37 27 0 12 -50 8 -105 -8z"/>
<path d="M13048 14533 c7 -3 16 -2 19 1 4 3 -2 6 -13 5 -11 0 -14 -3 -6 -6z"/>
<path d="M13325 14529 c-21 -3 -41 -12 -43 -18 -2 -6 -13 -11 -25 -12 -15 0
-17 -2 -7 -6 8 -3 26 -14 39 -25 19 -14 27 -16 38 -6 15 12 47 68 41 72 -2 1
-21 -1 -43 -5z"/>
<path d="M13781 14514 c0 -11 3 -14 6 -6 3 7 2 16 -1 19 -3 4 -6 -2 -5 -13z"/>
<path d="M12867 14427 c-10 -19 -17 -45 -17 -56 0 -22 6 -22 72 -5 9 3 19 0
23 -6 11 -18 34 21 35 58 0 25 -4 32 -19 32 -10 0 -32 3 -48 6 -27 5 -32 2
-46 -29z"/>
<path d="M13460 14395 c0 -18 5 -25 20 -25 15 0 20 7 20 25 0 18 -5 25 -20 25
-15 0 -20 -7 -20 -25z"/>
<path d="M13615 14319 c-8 -12 -6 -15 22 -23 28 -9 39 10 14 23 -25 14 -28 14
-36 0z"/>
<path d="M13577 14314 c-8 -8 1 -24 14 -24 5 0 9 7 9 15 0 15 -12 20 -23 9z"/>
<path d="M13782 14300 c0 -14 2 -19 5 -12 2 6 2 18 0 25 -3 6 -5 1 -5 -13z"/>
<path d="M13692 14275 l-21 -24 32 6 c39 7 41 8 34 28 -9 21 -20 19 -45 -10z"/>
<path d="M13082 14228 c6 -18 28 -21 28 -4 0 9 -7 16 -16 16 -9 0 -14 -5 -12
-12z"/>
<path d="M13765 14170 c3 -5 8 -10 11 -10 2 0 4 5 4 10 0 6 -5 10 -11 10 -5 0
-7 -4 -4 -10z"/>
<path d="M13098 14147 c-21 -10 -38 -23 -38 -29 0 -14 71 -1 88 16 11 10 11
14 0 22 -9 7 -25 4 -50 -9z"/>
<path d="M5058 15329 c-24 -14 -23 -46 2 -54 11 -3 20 -11 20 -16 0 -19 45 -4
55 19 5 12 16 22 23 22 7 0 10 5 7 10 -3 6 -15 10 -26 10 -10 0 -19 5 -19 10
0 13 -40 12 -62 -1z"/>
<path d="M5228 15323 c-16 -2 -28 -10 -28 -17 0 -8 -9 -20 -20 -27 -20 -14
-19 -14 5 -36 18 -16 25 -18 25 -7 0 8 12 20 28 26 43 19 62 41 46 56 -7 7
-17 11 -21 11 -4 -1 -20 -4 -35 -6z"/>
<path d="M4342 15078 c3 -7 23 -14 46 -16 33 -2 42 0 42 12 0 12 -11 16 -46
16 -32 0 -44 -4 -42 -12z"/>
<path d="M4510 15080 c0 -5 7 -10 16 -10 8 0 12 5 9 10 -3 6 -10 10 -16 10 -5
0 -9 -4 -9 -10z"/>
<path d="M5120 15075 c0 -8 5 -15 10 -15 6 0 10 7 10 15 0 8 -4 15 -10 15 -5
0 -10 -7 -10 -15z"/>
<path d="M5078 15053 c7 -3 16 -2 19 1 4 3 -2 6 -13 5 -11 0 -14 -3 -6 -6z"/>
<path d="M4342 15032 c-30 -23 -14 -38 41 -41 l39 -2 -22 31 c-25 35 -27 35
-58 12z"/>
<path d="M4143 15023 c-7 -2 -13 -12 -13 -20 0 -10 6 -13 16 -9 9 3 18 6 20 6
2 0 4 7 4 15 0 15 -6 17 -27 8z"/>
<path d="M4533 14075 c4 -9 7 -19 7 -21 0 -2 7 -4 15 -4 22 0 18 18 -7 31 -18
10 -20 9 -15 -6z"/>
<path d="M4770 13631 c0 -6 16 -11 36 -11 19 0 55 -5 80 -11 31 -8 49 -8 55
-2 7 7 -12 13 -58 18 -37 3 -78 9 -90 12 -14 3 -23 0 -23 -6z"/>
<path d="M10074 13305 c-9 -21 -2 -26 13 -10 8 9 9 16 3 20 -6 3 -13 -1 -16
-10z"/>
<path d="M10031 13261 c-14 -9 -9 -41 7 -41 15 0 34 28 27 40 -8 12 -16 13
-34 1z"/>
<path d="M10100 13132 c0 -15 22 -30 36 -25 24 9 16 33 -11 33 -14 0 -25 -4
-25 -8z"/>
<path d="M10180 13105 c0 -18 5 -25 20 -25 15 0 20 7 20 25 0 18 -5 25 -20 25
-15 0 -20 -7 -20 -25z"/>
<path d="M7365 12980 c-3 -5 -15 -10 -26 -10 -10 0 -29 -5 -42 -12 -12 -6 -29
-14 -37 -18 -8 -4 -15 -13 -15 -21 0 -8 -7 -19 -15 -26 -13 -10 -13 -15 -2
-33 7 -11 10 -25 7 -30 -8 -13 -38 -13 -52 1 -15 15 -34 2 -26 -18 4 -10 2
-14 -4 -10 -12 7 -43 -17 -43 -33 0 -20 22 -19 57 3 63 40 80 42 118 13 19
-15 48 -29 64 -32 17 -4 28 -10 26 -14 -8 -13 32 -22 65 -15 22 5 40 1 64 -14
18 -12 42 -21 53 -21 10 0 23 -4 29 -9 27 -28 100 -57 125 -50 15 3 33 3 40
-2 23 -14 48 -10 66 11 10 11 23 20 30 20 7 0 13 5 13 10 0 6 5 10 11 10 5 0
8 -4 5 -9 -4 -5 -1 -11 6 -13 18 -6 0 -28 -23 -28 -16 0 -19 -4 -13 -22 3 -13
13 -31 22 -40 16 -19 52 -24 52 -8 0 13 11 13 30 0 13 -9 13 -11 0 -21 -13 -9
-13 -11 -1 -16 8 -3 25 -16 37 -28 12 -12 34 -25 48 -29 18 -4 26 -14 28 -29
2 -36 3 -41 11 -53 8 -14 -18 -38 -31 -30 -5 3 -18 -1 -28 -9 -17 -13 -18 -14
-1 -15 9 0 17 -5 17 -10 0 -11 -62 -4 -87 9 -7 4 -41 4 -75 1 -35 -4 -83 -2
-109 3 -38 8 -53 6 -89 -12 -24 -12 -62 -21 -84 -22 -23 -1 -52 -5 -66 -9 -20
-6 -13 -8 30 -10 30 -1 69 -1 87 0 18 1 39 -4 46 -12 12 -11 12 -15 -6 -30
-11 -10 -30 -18 -43 -18 -13 0 -26 -4 -29 -10 -3 -5 -16 -10 -27 -10 -11 0
-35 -9 -52 -19 -17 -11 -51 -25 -76 -32 -25 -7 -64 -26 -86 -41 -23 -15 -47
-28 -54 -28 -16 0 -158 -77 -177 -95 -13 -13 -63 -21 -102 -15 -9 1 -12 -4 -7
-16 4 -11 -3 -31 -19 -54 -14 -21 -27 -50 -28 -66 -2 -24 2 -29 33 -35 25 -6
42 -3 59 8 17 11 48 16 93 16 69 0 79 5 54 26 -18 15 -10 44 17 69 27 24 113
72 130 72 19 0 74 -61 81 -91 12 -53 44 -78 168 -134 30 -14 54 -16 120 -11
46 3 100 6 121 6 27 0 37 4 37 15 0 22 24 19 46 -6 22 -24 54 -22 166 12 66
20 86 22 81 7 -5 -14 18 -9 33 7 11 11 20 12 33 5 20 -10 101 22 101 40 0 6
-16 42 -35 80 -40 80 -40 80 -19 80 18 0 53 -38 54 -58 0 -16 32 -12 37 4 2 7
-7 24 -22 39 -14 16 -25 38 -25 51 0 12 -5 26 -11 29 -13 8 18 45 38 45 22 0
15 27 -9 34 -22 6 -22 7 -5 20 31 24 20 41 -25 37 -9 -1 -24 12 -34 29 -10 16
-23 30 -29 31 -5 0 0 4 13 9 12 5 22 18 22 28 0 10 5 23 12 30 9 9 7 12 -9 12
-23 0 -48 24 -39 38 3 6 -1 15 -9 22 -10 9 -15 9 -15 1 0 -6 -4 -11 -10 -11
-5 0 -10 7 -10 15 0 8 -9 15 -20 15 -11 0 -20 5 -20 11 0 5 -4 7 -10 4 -6 -4
-10 8 -10 29 0 27 -4 35 -20 38 -19 3 -19 4 4 31 24 27 25 28 55 13 40 -21 58
-20 71 3 5 11 19 23 30 26 16 5 18 10 9 26 -5 11 -7 29 -4 40 5 16 3 20 -12
19 -42 -5 -53 0 -53 24 0 14 7 26 16 28 9 2 22 21 30 43 12 36 12 41 -6 60
-11 12 -20 30 -20 41 0 10 -9 30 -20 44 -16 21 -21 22 -29 10 -9 -12 -13 -12
-37 0 -15 8 -40 27 -57 43 -39 36 -101 41 -123 9 -19 -28 -45 -28 -62 -1 -19
30 -103 24 -117 -8 -10 -25 -27 -31 -24 -10 5 43 -16 52 -24 10 -4 -20 -1 -33
13 -45 11 -9 20 -19 20 -22 0 -11 -31 -6 -58 8 -15 8 -56 22 -92 31 -36 10
-80 24 -98 32 -37 16 -55 10 -47 -18 10 -30 -28 -24 -61 10 -33 32 -69 47 -79
31z m275 -85 c0 -8 -8 -15 -19 -15 -10 0 -24 7 -31 15 -11 13 -8 15 19 15 21
0 31 -5 31 -15z m418 -341 c15 -4 22 -14 22 -30 0 -18 -5 -24 -22 -24 -22 1
-22 1 -4 15 17 13 15 14 -18 20 -20 4 -36 11 -36 16 0 10 25 11 58 3z m112
-138 c0 -3 -4 -8 -10 -11 -5 -3 -10 -1 -10 4 0 6 5 11 10 11 6 0 10 -2 10 -4z
m-44 -91 c17 -13 15 -14 -31 -14 -46 0 -48 1 -31 14 11 8 25 15 31 15 6 0 20
-7 31 -15z m119 -16 c8 -23 1 -34 -14 -24 -13 8 -15 45 -2 45 5 0 13 -9 16
-21z m-166 -313 c13 -11 27 -31 32 -43 5 -13 15 -23 24 -23 8 0 15 -7 15 -15
0 -9 -29 -29 -72 -50 -135 -63 -154 -57 -118 34 11 28 20 61 20 72 0 11 4 28
10 38 12 23 56 17 89 -13z m-583 13 c9 -15 -11 -33 -30 -26 -9 4 -13 13 -10
22 7 17 30 20 40 4z m282 -21 c-3 -29 -7 -33 -35 -36 -29 -3 -33 0 -33 20 0
30 18 48 48 48 20 0 23 -4 20 -32z m-118 -38 c0 -5 -4 -10 -9 -10 -6 0 -13 5
-16 10 -3 6 1 10 9 10 9 0 16 -4 16 -10z m570 -26 c0 -8 -4 -12 -10 -9 -5 3
-10 10 -10 16 0 5 5 9 10 9 6 0 10 -7 10 -16z m0 -54 c0 -5 -7 -10 -16 -10 -8
0 -12 5 -9 10 3 6 10 10 16 10 5 0 9 -4 9 -10z"/>
<path d="M7057 12892 c-25 -28 -21 -44 10 -40 19 2 29 10 34 31 6 22 4 27 -10
27 -10 0 -25 -8 -34 -18z"/>
<path d="M6979 12820 l-24 -19 31 -1 c28 0 44 13 44 36 0 11 -30 2 -51 -16z"/>
<path d="M9950 12819 c-7 -11 -9 -23 -6 -26 8 -9 47 28 40 38 -9 15 -23 10
-34 -12z"/>
<path d="M8367 12733 c-3 -5 -10 -28 -17 -51 -10 -38 -9 -47 6 -63 26 -29 51
-24 59 11 4 17 13 30 21 30 8 0 14 4 14 9 0 14 -78 73 -83 64z"/>
<path d="M4931 12536 c-17 -41 -31 -82 -31 -90 0 -9 -4 -24 -9 -34 -12 -25
-31 -80 -47 -137 -7 -27 -20 -75 -29 -105 -8 -30 -15 -64 -15 -75 0 -11 -7
-33 -15 -49 -36 -68 -155 -519 -199 -753 -9 -46 -23 -118 -31 -161 -18 -97
-18 -102 -1 -102 23 0 37 26 46 87 5 32 26 135 46 228 20 94 39 195 44 225 4
30 12 69 17 85 6 17 20 75 33 130 12 55 31 127 41 161 11 33 19 69 19 79 0 10
21 77 46 149 25 72 52 154 59 181 7 28 24 82 38 120 14 39 28 85 32 103 12 57
-12 35 -44 -42z"/>
<path d="M5772 12522 c-10 -3 -9 -8 4 -23 24 -27 99 -27 114 0 5 11 10 22 10
26 0 6 -108 4 -128 -3z"/>
<path d="M8160 12520 c0 -5 5 -10 10 -10 6 0 10 5 10 10 0 6 -4 10 -10 10 -5
0 -10 -4 -10 -10z"/>
<path d="M5760 12310 c0 -5 9 -10 20 -10 11 0 20 5 20 10 0 6 -9 10 -20 10
-11 0 -20 -4 -20 -10z"/>
<path d="M8342 12283 c2 -10 11 -19 21 -21 16 -3 17 -1 5 17 -16 25 -31 27
-26 4z"/>
<path d="M8320 12250 c0 -19 3 -21 12 -12 9 9 9 15 0 24 -9 9 -12 7 -12 -12z"/>
<path d="M7300 12239 c0 -5 5 -7 10 -4 6 3 10 8 10 11 0 2 -4 4 -10 4 -5 0
-10 -5 -10 -11z"/>
<path d="M7145 12175 c-45 -16 -76 -38 -122 -84 -35 -34 -63 -66 -63 -71 0
-12 62 9 76 26 15 19 117 96 153 116 17 9 31 22 31 28 0 13 -3 12 -75 -15z"/>
<path d="M8225 11730 c3 -5 8 -10 11 -10 2 0 4 5 4 10 0 6 -5 10 -11 10 -5 0
-7 -4 -4 -10z"/>
<path d="M4848 11673 c6 -2 18 -2 25 0 6 3 1 5 -13 5 -14 0 -19 -2 -12 -5z"/>
<path d="M5823 11662 c-12 -2 -25 -13 -29 -25 -3 -12 -14 -29 -24 -37 -41 -36
-53 -113 -39 -250 1 -8 9 37 18 100 14 101 19 115 36 118 11 1 29 16 40 32 15
23 25 28 43 23 22 -5 23 -4 13 14 -12 24 -27 30 -58 25z"/>
<path d="M8088 11663 c7 -3 16 -2 19 1 4 3 -2 6 -13 5 -11 0 -14 -3 -6 -6z"/>
<path d="M4893 11643 c-8 -2 -13 -22 -13 -44 0 -32 3 -39 20 -39 17 0 20 7 20
45 0 44 -3 48 -27 38z"/>
<path d="M8054 11635 c-16 -12 -16 -13 5 -20 15 -5 28 -2 38 8 13 12 12 15 -6
20 -11 2 -28 -1 -37 -8z"/>
<path d="M4787 11634 c-11 -11 3 -24 18 -18 8 4 12 10 9 15 -6 11 -18 12 -27
3z"/>
<path d="M5840 11600 c0 -5 6 -7 14 -4 8 3 21 -5 30 -17 13 -19 16 -20 22 -6
3 9 3 21 -1 27 -8 13 -65 13 -65 0z"/>
<path d="M8000 11599 c0 -6 -9 -8 -20 -4 -22 7 -53 -11 -44 -26 9 -15 58 -10
83 7 18 13 20 18 10 25 -19 12 -29 11 -29 -2z"/>
<path d="M7880 11570 c0 -5 9 -10 20 -10 11 0 20 5 20 10 0 6 -9 10 -20 10
-11 0 -20 -4 -20 -10z"/>
<path d="M5835 11560 c3 -5 8 -10 11 -10 2 0 4 5 4 10 0 6 -5 10 -11 10 -5 0
-7 -4 -4 -10z"/>
<path d="M5088 11463 c6 -2 18 -2 25 0 6 3 1 5 -13 5 -14 0 -19 -2 -12 -5z"/>
<path d="M3869 11453 c-5 -32 -3 -36 16 -39 11 -2 42 -8 70 -13 27 -5 53 -7
58 -4 4 2 19 -2 32 -11 27 -18 45 -21 45 -7 0 19 -32 41 -60 41 -16 0 -30 4
-32 10 -1 5 -28 10 -58 12 -30 2 -58 8 -62 13 -5 6 -8 5 -9 -2z"/>
<path d="M5120 11425 c0 -8 8 -15 18 -15 20 -1 68 -26 65 -34 -6 -14 -2 -26 8
-26 6 0 22 -9 36 -19 23 -19 25 -19 44 -3 25 22 24 30 -8 45 -14 6 -39 24 -54
39 -21 22 -37 28 -68 28 -30 0 -41 -4 -41 -15z"/>
<path d="M5725 11238 c-10 -72 -12 -178 -3 -178 4 0 8 -9 8 -20 0 -41 59 -223
78 -242 12 -12 23 248 15 332 -3 36 -7 76 -8 90 -4 44 -5 45 -19 21 -13 -23
-14 -23 -23 -5 -6 10 -9 25 -7 32 1 7 0 8 -3 2 -3 -8 -9 -8 -18 0 -11 9 -15 3
-20 -32z m75 -83 c0 -8 -4 -15 -10 -15 -5 0 -10 -6 -10 -14 0 -8 -4 -18 -10
-21 -6 -4 -10 8 -10 29 0 29 4 36 20 36 11 0 20 -7 20 -15z"/>
<path d="M5534 11165 c-3 -8 2 -22 11 -31 16 -16 16 -18 -7 -35 -13 -10 -25
-14 -27 -8 -6 18 -53 31 -62 18 -5 -8 9 -21 39 -37 26 -13 54 -31 63 -38 8 -8
23 -14 32 -14 14 0 16 8 12 48 -8 89 -16 112 -36 112 -11 0 -22 -7 -25 -15z"/>
<path d="M6240 11095 c0 -8 5 -15 10 -15 6 0 10 7 10 15 0 8 -4 15 -10 15 -5
0 -10 -7 -10 -15z"/>
<path d="M8384 10350 c-24 -9 -36 -33 -28 -54 5 -13 11 -13 46 0 22 8 58 14
79 14 29 0 37 3 33 14 -11 29 -87 44 -130 26z"/>
<path d="M7568 10165 c-6 -14 -14 -25 -18 -25 -4 0 -39 -31 -76 -68 -66 -65
-94 -109 -153 -243 -11 -25 -21 -57 -23 -70 -2 -22 16 -149 28 -192 10 -34 24
-5 24 51 0 105 51 240 129 346 23 30 41 58 41 61 0 3 20 36 45 73 25 37 45 72
45 79 0 23 -30 14 -42 -12z"/>
<path d="M7620 9539 c-16 -28 -5 -49 24 -49 14 0 29 -7 34 -15 10 -20 82 -33
82 -15 0 6 -19 31 -42 56 -47 48 -81 56 -98 23z"/>
<path d="M9346 9481 c-4 -7 -5 -15 -2 -18 9 -9 19 4 14 18 -4 11 -6 11 -12 0z"/>
<path d="M7787 9445 c-4 -9 5 -21 23 -32 17 -9 30 -21 30 -25 0 -4 15 -15 33
-24 37 -20 96 -20 115 0 11 11 10 14 -11 20 -14 3 -53 22 -87 41 -67 38 -95
43 -103 20z"/>
<path d="M8250 9360 c-35 -5 -41 -8 -25 -14 11 -4 39 -16 63 -27 28 -13 62
-19 101 -18 32 1 63 -1 69 -5 15 -9 53 7 44 19 -22 32 -167 57 -252 45z"/>
<path d="M5594 9324 c4 -14 3 -23 -2 -20 -11 7 -32 -37 -32 -66 0 -21 0 -21
16 -2 12 15 15 16 10 2 -3 -9 0 -19 7 -22 7 -2 2 -5 -10 -5 -36 -1 -23 -30 29
-64 38 -24 61 -23 53 4 -4 11 -1 34 5 50 11 26 10 32 -4 42 -14 10 -15 18 -7
41 10 24 8 30 -11 47 -13 10 -31 18 -42 19 -15 0 -17 -5 -12 -26z"/>
<path d="M5770 9239 c0 -13 -4 -18 -12 -13 -9 5 -10 4 -3 -4 15 -16 95 -27 95
-13 0 6 -6 11 -13 11 -7 0 -18 9 -25 20 -16 26 -42 26 -42 -1z"/>
<path d="M5956 9181 c-11 -12 -26 -21 -35 -21 -18 0 -42 -62 -31 -81 4 -6 5
-20 2 -31 -6 -23 -38 -20 -36 4 1 9 -5 19 -13 22 -8 3 -11 1 -8 -4 10 -16 -46
-12 -59 4 -15 19 -56 31 -56 16 0 -6 15 -17 33 -25 19 -8 39 -21 46 -29 7 -9
17 -13 23 -10 5 3 18 -6 29 -20 11 -14 29 -26 40 -26 11 0 32 -13 46 -30 13
-16 31 -30 38 -30 14 0 25 52 25 121 0 46 0 47 -32 45 -24 -1 -33 4 -36 17 -5
23 15 47 39 47 24 0 31 14 16 34 -12 16 -14 16 -31 -3z"/>
<path d="M4037 8132 c-11 -12 -17 -35 -17 -65 0 -40 5 -52 39 -87 31 -33 45
-41 68 -38 24 3 28 7 26 33 -7 125 -69 209 -116 157z"/>
<path d="M9680 6880 c0 -5 18 -10 41 -10 24 0 38 4 34 10 -3 6 -22 10 -41 10
-19 0 -34 -4 -34 -10z"/>
<path d="M9663 6823 c9 -2 17 -9 17 -14 0 -5 7 -9 15 -9 23 0 18 17 -7 24 -13
3 -27 5 -33 5 -5 -1 -2 -3 8 -6z"/>
<path d="M9978 6613 c7 -3 16 -2 19 1 4 3 -2 6 -13 5 -11 0 -14 -3 -6 -6z"/>
<path d="M9040 6510 c0 -5 5 -10 11 -10 5 0 7 5 4 10 -3 6 -8 10 -11 10 -2 0
-4 -4 -4 -10z"/>
<path d="M9760 5455 c0 -8 2 -15 4 -15 2 0 6 7 10 15 3 8 1 15 -4 15 -6 0 -10
-7 -10 -15z"/>
<path d="M12760 13188 c0 -24 49 -118 61 -118 18 0 38 32 39 61 0 20 -9 29
-45 47 -53 26 -55 26 -55 10z"/>
<path d="M12610 13173 c0 -5 12 -19 25 -32 14 -13 25 -27 25 -32 0 -5 5 -9 10
-9 17 0 11 17 -16 49 -24 29 -44 40 -44 24z"/>
<path d="M10036 10405 c5 -11 11 -12 25 -4 26 13 24 19 -6 19 -17 0 -23 -4
-19 -15z"/>
<path d="M13684 7756 c-3 -8 -6 -45 -7 -83 -2 -59 -4 -68 -21 -68 -12 0 -30
21 -55 65 -36 63 -62 82 -69 49 -1 -9 14 -45 34 -80 20 -35 37 -75 37 -89 2
-51 -15 -142 -33 -185 -10 -24 -22 -61 -25 -82 -6 -37 -6 -37 8 -13 8 14 20
48 26 76 23 96 68 139 102 98 12 -14 14 -14 20 3 12 29 10 311 -1 318 -6 3
-13 0 -16 -9z"/>
<path d="M12900 7750 c0 -5 5 -10 10 -10 6 0 10 5 10 10 0 6 -4 10 -10 10 -5
0 -10 -4 -10 -10z"/>
<path d="M13295 7666 c-28 -29 -39 -78 -31 -143 8 -64 8 -76 2 -158 -3 -44 -2
-57 3 -35 11 53 29 79 58 86 14 4 34 2 44 -5 27 -16 27 -16 26 42 -1 28 2 82
7 119 8 64 7 68 -17 92 -32 32 -61 33 -92 2z m81 -75 c16 -31 3 -73 -28 -91
-22 -12 -29 -12 -42 -1 -23 19 -20 77 5 102 25 25 50 21 65 -10z"/>
<path d="M13078 7633 c-55 -63 -48 -124 8 -72 42 40 83 11 84 -58 0 -20 -28
-45 -47 -42 -40 7 -66 -20 -77 -80 l-6 -35 22 21 c47 42 92 40 110 -5 l10 -27
10 25 c21 55 8 219 -21 260 -23 31 -71 38 -93 13z"/>
<path d="M12845 7585 c-17 -16 -25 -35 -25 -60 0 -42 8 -44 40 -10 13 14 29
25 37 25 21 0 45 -46 41 -82 -3 -30 -7 -33 -42 -39 -43 -7 -66 -30 -66 -65 0
-12 -3 -29 -6 -38 -3 -9 -1 -16 5 -16 6 0 11 6 11 13 0 8 15 22 33 32 42 22
72 9 83 -37 6 -29 8 -30 15 -13 12 30 10 180 -2 230 -21 82 -76 109 -124 60z"/>
<path d="M12642 7563 c-29 -11 -45 -68 -50 -173 -5 -114 2 -133 11 -32 9 88
31 132 68 132 26 0 30 -5 44 -55 9 -30 21 -55 26 -55 22 0 0 142 -28 172 -16
17 -44 22 -71 11z"/>
<path d="M13260 7272 c0 -91 94 -108 130 -22 16 37 5 52 -16 22 -20 -28 -61
-28 -91 0 l-23 21 0 -21z"/>
<path d="M13045 7237 c6 -65 20 -87 53 -87 33 0 45 8 61 38 16 30 10 36 -23
21 -37 -17 -72 1 -86 43 -9 31 -10 30 -5 -15z"/>
<path d="M12824 7171 c8 -43 32 -71 61 -71 25 0 65 39 65 63 0 19 -15 23 -25
7 -12 -19 -66 -11 -87 13 l-19 22 5 -34z"/>
<path d="M12720 7141 c0 -5 -14 -14 -30 -21 -23 -10 -37 -10 -55 -2 -22 10
-25 9 -25 -8 0 -21 33 -60 49 -60 6 0 21 10 34 23 27 25 52 77 37 77 -6 0 -10
-4 -10 -9z"/>
<path d="M13420 6424 c-14 -8 -17 -13 -7 -10 10 3 25 6 33 6 8 0 14 5 14 10 0
14 -10 12 -40 -6z"/>
<path d="M9926 17753 c55 -86 68 -92 83 -35 17 60 16 62 -45 62 l-56 0 18 -27z"/>
<path d="M11890 17776 c0 -3 7 -12 16 -20 20 -20 54 -21 54 -1 0 18 31 20 47
4 13 -13 43 -5 43 11 0 6 -32 10 -80 10 -44 0 -80 -2 -80 -4z"/>
<path d="M5493 17755 c-19 -21 -16 -27 7 -13 11 7 20 16 20 20 0 12 -14 9 -27
-7z"/>
<path d="M10063 17573 c-17 -6 -16 -70 1 -80 7 -4 16 -15 20 -23 3 -8 3 3 0
24 -4 27 -1 41 8 47 11 7 10 11 -2 22 -8 8 -21 13 -27 10z"/>
<path d="M9977 17533 c4 -11 2 -14 -5 -9 -7 4 -12 2 -12 -4 0 -7 7 -9 16 -6 9
3 18 6 20 6 11 0 2 18 -10 23 -11 4 -13 1 -9 -10z"/>
<path d="M10225 17530 c3 -5 8 -10 11 -10 2 0 4 5 4 10 0 6 -5 10 -11 10 -5 0
-7 -4 -4 -10z"/>
<path d="M9810 17438 c0 -19 2 -20 10 -8 13 19 13 30 0 30 -5 0 -10 -10 -10
-22z"/>
<path d="M12151 17364 c0 -11 3 -14 6 -6 3 7 2 16 -1 19 -3 4 -6 -2 -5 -13z"/>
<path d="M12106 17324 c-9 -22 -8 -24 9 -24 8 0 15 9 15 20 0 24 -15 27 -24 4z"/>
<path d="M9807 17300 c-4 -19 -3 -38 3 -44 15 -15 23 19 13 51 l-10 28 -6 -35z"/>
<path d="M11764 17195 c-9 -22 1 -29 15 -11 8 10 9 16 1 21 -5 3 -13 -1 -16
-10z"/>
<path d="M7492 17040 c0 -14 2 -19 5 -12 2 6 2 18 0 25 -3 6 -5 1 -5 -13z"/>
<path d="M6219 904 c-41 -20 -85 -42 -99 -48 -31 -15 -50 -71 -29 -90 15 -13
37 -13 319 13 63 6 176 11 250 11 l135 0 114 -57 c118 -59 142 -61 149 -16 4
30 -58 115 -98 135 -34 16 -61 22 -250 53 -184 31 -216 35 -316 35 -97 0 -105
-2 -175 -36z"/>
<path d="M8155 301 c-35 -15 -52 -44 -71 -123 l-18 -78 24 -25 c15 -16 54 -35
105 -50 80 -25 85 -25 474 -25 235 0 390 4 387 9 -4 5 -48 32 -99 60 -50 29
-108 61 -127 73 -19 11 -60 30 -90 40 -30 11 -59 23 -65 28 -17 13 -197 69
-273 85 -78 16 -214 19 -247 6z"/>
</g>
</svg>
